<?xml version="1.0" encoding="UTF-8"?>
<svg id="Layer_2" data-name="Layer 2" xmlns="http://www.w3.org/2000/svg" width="990" height="987" viewBox="0 0 990 987">
  <g id="Layer_5" data-name="Layer 5">
    <g>
      <path d="m901,381.828v203.77c-.586,2.15-1.172,4.299-1.758,6.448-.427,3.749-.855,7.499-1.283,11.249-.115,2.095-.229,4.19-.344,6.285-.474,1.107-1.217,2.176-1.383,3.328-2.681,18.548-4.593,37.238-8.059,55.635-6.788,36.022-26.8,62.107-60.301,77.847-19.632,9.224-40.919,9.371-61.637,12.756-8.022.534-16.044,1.069-24.065,1.603-2.114-.006-4.228-.013-6.342-.019-2.199.407-4.398.813-6.597,1.22-.486.091-.968.197-1.447.319-3.229-.012-6.457-.024-9.686-.035-2.156.357-4.313.715-6.469,1.072-5.334.665-10.667,1.331-16.001,1.996h-401.123c-3.732-.609-7.463-1.217-11.194-1.825-2.191-.375-4.382-.75-6.573-1.125-2.574-.141-5.148-.281-7.721-.421-.634-.215-1.269-.431-1.903-.646-2.158.063-4.315.126-6.473.19-4.22-.234-8.44-.469-12.659-.703-3.755-.002-7.511-.004-11.266-.005-8.018-.54-16.037-1.08-24.055-1.62-13.527-1.695-27.358-2.136-40.518-5.339-29.355-7.147-52.466-23.755-68.595-49.645-11.756-18.87-14.024-40.417-17.658-61.595-1.528-8.905-3.122-17.799-4.686-26.698-.112-3.606-.223-7.212-.335-10.818-.455-2.205-.91-4.411-1.365-6.616,0-78.085,0-156.171,0-234.256.445-2.145.89-4.291,1.335-6.436.137-2.098.274-4.197.411-6.295,1.595-11.778,3.191-23.556,4.786-35.334l-.045.05c.42-.568.839-1.136,1.259-1.703,1.732-9.701,2.387-19.749,5.388-29.04,11.398-35.279,33.794-60.379,70.107-71.116,9.941-2.939,20.439-3.995,30.681-5.915,9.625-1.112,19.25-2.224,28.874-3.336,1.07.275,2.141.549,3.212.824,11.193.302,22.385.604,33.578.906,4.267.045,8.544-.078,12.798.181,4.75.288,7.09-1.531,6.574-6.443,145.474,0,290.948,0,436.422,0,3.175.628,6.35,1.257,9.525,1.885,2.209.368,4.418.737,6.627,1.106,2.656.022,5.312.043,7.968.065,2.076.142,4.152.284,6.228.425,8.613,1.423,17.226,2.847,25.839,4.27,12.156,1.694,24.36,3.096,36.456,5.141,25.645,4.337,45.751,18.043,61.292,38.359,19.055,24.909,21.833,55.021,25.784,84.67.882,6.619,1.99,13.207,2.993,19.81.154,2.085.308,4.17.462,6.255.37,1.599.741,3.197,1.111,4.796.156,1.632.313,3.264.469,4.896.456,3.21.911,6.42,1.367,9.629Zm-493.947,222.77c71.925-40.837,142.369-80.834,214.623-121.858-71.731-40.913-142.486-81.269-214.623-122.413v244.271Z" style="fill: #fe0000;"/>
      <path d="m766.234,759.146c20.719-3.385,42.006-3.533,61.637-12.756,33.501-15.74,53.513-41.824,60.301-77.847,3.467-18.397,5.379-37.087,8.059-55.635.166-1.152.909-2.22,1.383-3.328.57.056,1.139.111,1.709.167.559-.027,1.117-.054,1.676-.081v155.636h-134.777c.004-2.052.008-4.104.011-6.156Z" style="fill: none;"/>
      <path d="m774.245,200.521c-1.06,2.584-2.12,5.167-3.179,7.751-8.613-1.423-17.226-2.847-25.839-4.27.059-.568.118-1.136.177-1.704.174-.201.522-.439.489-.597-.087-.412-.34-.789-.528-1.18,9.627,0,19.254,0,28.881,0Z" style="fill: #fde3ea;"/>
      <path d="m79.5,316.044c2.177.023,4.354.046,6.531.069-1.595,11.778-3.191,23.556-4.787,35.335-.582-1.639-1.163-3.279-1.744-4.919,0-1.604,0-3.209,0-4.813v-25.672Z" style="fill: #fdf2f4;"/>
      <path d="m259.084,206.783c-11.193-.302-22.385-.604-33.578-.906,2.619-1.171,5.237-2.342,7.856-3.513,2.143-.132,4.286-.264,6.429-.395,5.401-.483,10.802-.965,16.203-1.448,1.604,0,3.209,0,4.813,0-.574,2.087-1.149,4.175-1.723,6.262Z" style="fill: #fe353b;"/>
      <path d="m212.673,765.302c-.005-2.052-.011-4.105-.016-6.157,8.018.54,16.037,1.08,24.055,1.62.009,1.513.019,3.025.028,4.538h-24.067Z" style="fill: #fef3ee;"/>
      <path d="m766.234,759.146c-.004,2.052-.008,4.104-.011,6.156h-27.276c-.008-.579-.016-1.157-.024-1.736,1.082-.939,2.164-1.878,3.246-2.817,8.022-.534,16.044-1.069,24.066-1.603Z" style="fill: #faf3f0;"/>
      <path d="m259.084,206.783c.574-2.087,1.149-4.175,1.723-6.262h17.649c.515,4.912-1.824,6.731-6.574,6.443-4.254-.258-8.531-.135-12.798-.181Z" style="fill: #ff1a1e;"/>
      <path d="m236.74,765.302c-.009-1.513-.019-3.025-.028-4.538,3.755.002,7.51.004,11.266.005.534.911,1.069,1.822,1.603,2.734-.512.119-1.022.242-1.53.369-1.631.476-3.261.953-4.892,1.429h-6.418Z" style="fill: #fde3d9;"/>
      <path d="m899.233,356.199c.589-.549,1.178-1.098,1.767-1.647v17.649c-.455-.105-.911-.106-1.367-.003-.156-1.632-.313-3.264-.468-4.895-.027-1.564-.054-3.128-.082-4.693.05-2.137.1-4.275.15-6.412Z" style="fill: #9caeac;"/>
      <path d="m899.242,592.048c.586-2.15,1.172-4.299,1.758-6.449v16.045c-.488.018-.949-.085-1.382-.309-.125-3.096-.251-6.192-.376-9.288Z" style="fill: #a49790;"/>
      <path d="m255.994,200.521c-5.401.483-10.802.965-16.202,1.449.103-.477.155-.96.157-1.449,5.348,0,10.697,0,16.045,0Z" style="fill: #cc4850;"/>
      <path d="m233.362,202.364c-2.619,1.171-5.237,2.341-7.856,3.513-1.071-.274-2.142-.549-3.212-.823.542-.874,1.083-1.749,1.623-2.623.529-.637,1.06-1.273,1.591-1.909,1.07,0,2.139,0,3.209,0,1.548.615,3.096,1.229,4.645,1.844Z" style="fill: #f9c2bd;"/>
      <path d="m81.2,615.868c-.567.607-1.133,1.214-1.7,1.82,0-4.279,0-8.557,0-12.836.436.198.891.264,1.365.198.112,3.606.223,7.212.335,10.818Z" style="fill: #fde3ea;"/>
      <path d="m79.5,346.53c.581,1.64,1.162,3.28,1.744,4.919-.136,2.098-.273,4.196-.41,6.294-.446-.055-.891-.049-1.335.018,0-3.744,0-7.488,0-11.231Z" style="fill: #c1cad2;"/>
      <path d="m899.633,372.199c.456-.103.911-.102,1.367.003v9.627c-.456-3.21-.911-6.42-1.367-9.629Z" style="fill: #897069;"/>
      <path d="m899.618,601.335c.434.224.895.327,1.382.309v8.022c-.559.027-1.117.054-1.675.08,0-2.156,0-4.31-.002-6.464.098-.649.196-1.298.294-1.947Z" style="fill: #c1cad2;"/>
      <path d="m80.865,605.051c-.474.066-.929,0-1.365-.198,0-2.139,0-4.279,0-6.418.455,2.205.91,4.411,1.365,6.616Z" style="fill: #ea9699;"/>
      <path d="m79.5,357.761c.444-.067.889-.074,1.335-.018-.445,2.146-.89,4.291-1.335,6.436,0-2.139,0-4.279,0-6.418Z" style="fill: #bab3ae;"/>
      <path d="m407.053,604.599v-244.271c72.137,41.144,142.892,81.501,214.623,122.413-72.254,41.024-142.698,81.02-214.623,121.858Z" style="fill: none;"/>
      <path d="m899.618,601.335c-.098.649-.196,1.298-.293,1.947-.455-.073-.911-.068-1.365.014.428-3.75.856-7.5,1.283-11.249.124,3.097.25,6.193.375,9.288Z" style="fill: #ffb3a9;"/>
      <path d="m897.959,603.296c.455-.082.91-.087,1.365-.014,0,2.155,0,4.309,0,6.464-.571-.054-1.14-.11-1.71-.166.115-2.095.229-4.19.344-6.285Z" style="fill: #fde3d9;"/>
      <path d="m899.233,356.199c-.05,2.137-.1,4.275-.149,6.411-.341-.052-.686-.086-1.032-.103-.154-2.085-.308-4.17-.462-6.255.547-.018,1.095-.036,1.642-.053Z" style="fill: #fde3d9;"/>
      <path d="m735.826,760.73c-2.2.407-4.399.814-6.598,1.22,2.2-.407,4.399-.813,6.598-1.22Z" style="fill: #ff908a;"/>
      <path d="m276.859,763.427c-.043-.358-.084-.717-.124-1.076,2.191.375,4.382.75,6.573,1.125-2.15-.017-4.299-.033-6.449-.049Z" style="fill: #f76361;"/>
      <path d="m718.096,762.234c-.079.37-.239.702-.484.995-1.999.026-3.992.052-5.985.077,2.156-.358,4.313-.715,6.469-1.072Z" style="fill: #f76361;"/>
      <path d="m898.053,362.507c.346.017.691.051,1.032.103.026,1.565.054,3.13.08,4.694-.371-1.599-.742-3.198-1.112-4.797Z" style="fill: #ffb3a9;"/>
      <path d="m269.013,761.93c-.635-.216-1.269-.432-1.903-.647.635.216,1.269.432,1.903.647Z" style="fill: #f76361;"/>
      <path d="m85.986,316.164c.42-.568.839-1.136,1.259-1.703-.42.568-.839,1.136-1.259,1.703Z" style="fill: #fdf2f4;"/>
      <rect width="990" height="987" style="fill: none;"/>
    </g>
  </g>
</svg>