<?xml version="1.0" encoding="UTF-8"?>
<svg id="Layer_2" data-name="Layer 2" xmlns="http://www.w3.org/2000/svg" width="990" height="987" viewBox="0 0 990 987">
  <g id="Layer_6" data-name="Layer 6">
    <g>
      <path d="m880.333,471.429v39.82c-2.476,1.042-4.951,2.084-7.427,3.126-13.426-.484-26.85-1.331-40.278-1.39-55.715-.245-111.431-.274-167.147-.341-40.98-.049-81.959-.034-122.939-.048-15.267-.062-30.533-.124-45.8-.186-2.431.188-4.863.376-7.294.564-2.95-.002-5.9-.003-8.851-.005h-12.902v13.036c-.008,5.878-.016,11.756-.023,17.634.002.526.003,1.052.005,1.578.004,1.44.008,2.88.012,4.32.005.527.009,1.054.014,1.582,0,1.421,0,2.842,0,4.263.005.551.01,1.102.015,1.653,0,1.427-.002,2.854-.002,4.281.004.54.007,1.081.011,1.621,0,1.427,0,2.853.001,4.28.004.539.007,1.079.011,1.618-.003.943-.006,1.886-.009,2.828v3.052c-.001.948-.004,1.896-.006,2.845-.001,1.018-.002,2.036-.003,3.054-.002.949-.004,1.898-.005,2.847,0,1.017,0,2.035-.001,3.052.002,1.433.004,2.867.007,4.3.007.54.013,1.081.02,1.621.002,1.432.004,2.865.005,4.297.007,1.044.015,2.088.022,3.132-.005.922-.01,1.844-.015,2.766.006.529.013,1.058.019,1.588-.003.924-.006,1.849-.009,2.773-.002,1.066-.003,2.132-.005,3.199-.004.928-.009,1.856-.013,2.783-.005,1.007-.009,2.015-.014,3.022-.003.959-.006,1.918-.009,2.878.004,1.007.007,2.014.011,3.021.002,1.453.005,2.906.007,4.359.011,2.513.022,5.026.033,7.538-.002,1.412-.004,2.823-.006,4.235.01.529.02,1.058.03,1.587-.024,1.418-.048,2.836-.072,4.253.011.57.022,1.141.033,1.711-.005,1.395-.01,2.791-.015,4.186.013.571.026,1.143.039,1.714-.004,1.394-.008,2.788-.011,4.182.014.574.027,1.147.041,1.721-.007,1.392-.015,2.784-.022,4.176.012.575.023,1.15.035,1.725-.007,5.324-.015,10.647-.022,15.971.011.576.023,1.153.034,1.729.013,17.583.026,35.165.038,52.748-.003.638-.006,1.276-.008,1.914.108,21.463.216,42.926.324,64.389-.161,1.619-.323,3.239-.484,4.858-.013.874-.026,1.747-.038,2.621.292.607.583,1.214.875,1.821l.071.09c.58.362,1.159.725,1.739,1.087,3.878.609,7.756,1.219,11.633,1.828,5.104.905,10.192,1.923,15.316,2.693,12.846,1.929,25.702,3.801,38.568,5.591,11.917,1.658,23.858,3.139,35.778,4.773,12.392,1.699,24.777,3.451,37.155,5.247,14.745,2.14,29.461,4.483,44.222,6.497,15.783,2.153,31.63,3.851,47.404,6.068,15.706,2.207,31.339,4.933,47.037,7.204,11.923,1.725,23.919,2.946,35.842,4.665,11.907,1.716,23.76,3.811,35.647,5.668,15.218,2.377,30.427,4.832,45.689,6.89,3.119.421,6.456-.768,9.692-1.215,1.999.579,3.999,1.159,5.998,1.738v8.847c-253.624,0-507.249,0-761,0V116c236.865,0,473.857,0,710.848,0,.975,2.346,1.95,4.692,2.925,7.038-3.538.602-7.057,1.367-10.617,1.77-6.504.736-13.067,1.012-19.544,1.917-19.333,2.7-38.633,5.636-57.952,8.432-14.594,2.112-29.221,4.006-43.794,6.259-20.702,3.2-41.336,6.847-62.058,9.913-16.23,2.401-32.575,4.021-48.82,6.33-18.344,2.607-36.638,5.576-54.947,8.426-8.946,1.393-17.879,2.874-26.818,4.314-12.746,1.56-25.493,3.119-38.239,4.679-.73.637-1.46,1.274-2.19,1.912-.082,4.166-.241,8.332-.235,12.498.09,61.314.277,122.627.277,183.941,0,33.101-.311,66.201-.481,99.302.432.969.863,1.938,1.295,2.907,29.458-.08,58.917-.128,88.375-.263,7.836-.036,15.67-.339,23.506-.519,1.005-.001,2.01-.003,3.015-.004.961-.001,1.922-.002,2.883-.003,11.202.047,22.403.095,33.605.142.651.209,1.302.417,1.953.626,34.85-.478,69.7-.956,104.55-1.434,14.299-.025,28.598-.05,42.896-.075,20.629.01,41.258.02,61.887.029,9.328-.509,18.656-1.018,27.984-1.528,3.458.016,6.915.031,10.373.047,1.448-.48,2.895-.961,4.343-1.441,1.993.071,3.986.142,5.979.214Zm-737.529,36.621c-5.357-.124-13.268-2.413-15.448.158-2.96,3.49-1.536,10.698-1.992,16.311-.082,46.141-.183,92.281-.239,138.422-.038,31.419.028,62.837-.071,94.256-.012,3.696.272,6.96,4.611,7.602,17.376,2.572,34.758,5.115,52.167,7.451,13.157,1.765,26.376,3.067,39.535,4.82,12.636,1.683,25.23,3.676,37.841,5.542,12.593,1.863,25.175,3.803,37.778,5.589,11.688,1.656,23.393,3.194,35.1,4.712,13.412,1.739,26.831,3.426,40.252,5.087,9.547,1.181,19.104,2.281,28.657,3.416,4.839,1.104,9.627,2.61,14.527,3.24,17.389,2.237,17.404,2.123,16.015-16.162.084-1.468.243-2.936.241-4.403-.114-89.906-.241-179.812-.367-269.718-.346-1.015-.691-2.03-1.037-3.046-.421-.049-.84-.108-1.259-.175-1.042-.325-2.083-.649-3.125-.974-9.333-.169-18.667-.338-28-.508-1.75-2.063-3.501-4.127-4.59-5.41,9.611-6.626,19.22-13.25,28.261-19.482-2.128-4.022-3.307-6.251-4.486-8.479,2.46.004,4.92.008,7.38.013,1.961-.102,3.921-.203,5.882-.305.49-2.752,1.406-5.504,1.408-8.256.064-93.586.043-187.173.014-280.759,0-1.909-.244-3.818-.382-5.845-102.289,13.994-204.178,27.932-305.8,41.835v253.992c56.72,0,112.864,0,169.008,0,.523-.001,1.047-.002,1.57-.004,1.443-.003,2.887-.005,4.33-.008.523,0,1.047,0,1.57,0,1.443,0,2.887-.001,4.33-.002.524,0,1.047-.002,1.571-.002,1.443-.001,2.886-.003,4.329-.004.524.002,1.048.004,1.572.005,1.443,0,2.886.002,4.328.003.524,0,1.048,0,1.572.001,1.443,0,2.885,0,4.328,0,.524.002,1.048.004,1.572.006h4.328c.524-.003,1.048-.006,1.572-.009,1.442-.009,2.885-.017,4.327-.026.525-.007,1.049-.013,1.574-.02,1.442-.018,2.884-.036,4.326-.054.525-.008,1.05-.016,1.575-.025,16.208.158,32.416.316,48.624.474-1.395.988-2.663,2.313-4.211,2.899-3.852,1.459-9.125,1.431-11.484,4.084-4.539,5.104-9.721,4.744-15.35,4.875-16.161.377-32.315,1.063-48.476,1.381-10.977.216-22.145.857-31.239-7.309-.851-.764-2.252-1.323-3.386-1.302-17.142.307-34.309.261-51.413,1.271-13.116.774-26.118,3.672-39.231,4.258-17.17.767-34.404.002-51.601.363-3.029.063-6.011,2.411-9.014,3.704,2.049,2.946,3.745,6.243,6.238,8.748,2.935,2.949,6.56,5.212,9.886,7.772Z" style="fill: none;"/>
      <path d="m880.333,868.153c-1.999-.579-3.999-1.159-5.998-1.738.032-115.03.072-230.06.031-345.09,0-2.317-.952-4.633-1.46-6.95,2.476-1.042,4.951-2.084,7.427-3.126v356.904Z" style="fill: #ecf4fb;"/>
      <path d="m880.333,471.429c-1.993-.071-3.986-.142-5.979-.214.021-114.091.051-228.182.007-342.273,0-2.338-.844-4.676-1.295-7.013.455-1.976.911-3.953,1.366-5.929,1.967,0,3.934,0,5.9,0v355.429Z" style="fill: #edf4fb;"/>
      <path d="m839.032,116c3.933,0,7.867,0,11.8,0,1.879.574,3.758,1.149,5.638,1.723-1.802,1.017-3.606,2.035-5.41,3.053-3.983.437-7.967.873-11.95,1.31-.026-2.028-.052-4.057-.079-6.085Z" style="fill: #c7e8fb;"/>
      <path d="m839.032,116c.026,2.028.052,4.057.079,6.085-2.001.318-4.002.635-6.004.953-.975-2.346-1.95-4.692-2.925-7.038,2.95,0,5.9,0,8.85,0Z" style="fill: #ecf4fb;"/>
      <path d="m874.433,116c-.455,1.976-.911,3.953-1.366,5.929-1.516-.515-3.031-1.031-4.547-1.546-.107-1.023-.214-2.046-.321-3.07,0,0,.176-.154.176-.154,1.036-.386,2.072-.773,3.108-1.159.983,0,1.967,0,2.95,0Z" style="fill: #1b85de;"/>
      <path d="m856.469,117.723c-1.879-.574-3.758-1.149-5.637-1.723,5.9,0,11.8,0,17.701,0-.08.383-.133.769-.158,1.159,0,0-.176.154-.172.155-1.964.116-3.933.231-5.901.346-1.944.021-3.889.042-5.833.063Z" style="fill: #7b8685;"/>
      <path d="m868.375,117.159c.025-.39.078-.777.158-1.159.983,0,1.967,0,2.95,0-1.036.386-2.072.773-3.108,1.159Z" style="fill: #3b95d9;"/>
      <path d="m872.906,514.375c.508,2.317,1.459,4.633,1.46,6.95.041,115.03,0,230.06-.031,345.09-3.236.447-6.573,1.636-9.692,1.215-15.262-2.058-30.471-4.514-45.689-6.89-11.888-1.857-23.74-3.952-35.647-5.668-11.924-1.718-23.92-2.939-35.842-4.665-15.698-2.271-31.331-4.997-47.037-7.204-15.774-2.217-31.62-3.915-47.404-6.068-14.761-2.014-29.477-4.357-44.222-6.497-12.378-1.797-24.763-3.548-37.155-5.247-11.92-1.634-23.861-3.115-35.778-4.773-12.866-1.79-25.722-3.662-38.568-5.591-5.125-.77-10.212-1.788-15.316-2.693-1.935-12.178-4.537-24.296-5.647-36.55-1.605-17.719-2.492-35.524-3.032-53.313-.816-26.903-1.07-53.824-1.56-80.737-.031-1.716.288-3.527-.172-5.116-.328-1.132-1.69-1.964-2.592-2.93-.016-.991-.031-1.981-.046-2.971.781-4.763,1.885-9.506,2.192-14.3.132-2.055-1.394-4.216-2.168-6.329,0-1.002,0-2.004.002-3.006,4.443-2.429,4.438-4.867.015-7.314-.41-1.013-.82-2.026-1.23-3.039-.002-1.432-.003-2.865-.005-4.297.17-.159.507-.359.48-.468-.101-.401-.323-.771-.5-1.153-.002-1.433-.004-2.867-.007-4.3,0-1.017,0-2.035.001-3.052.002-.949.004-1.898.005-2.847.001-1.018.002-2.036.003-3.054.002-.948.005-1.896.007-2.845,0-1.017,0-2.034,0-3.052.003-.943.006-1.886.009-2.828.171-.158.509-.356.482-.465-.099-.4-.319-.771-.493-1.153,0-1.427,0-2.853-.001-4.28.171-.158.509-.357.482-.466-.099-.401-.319-.772-.493-1.154,0-1.427.002-2.854.002-4.281.397-.52.794-1.041,1.191-1.561.925-.927,2.393-1.707,2.691-2.804,3.233-11.904,4.143-24.755,15.066-33.299,1.61-1.26,1.888-4.222,2.783-6.397,2.431-.188,4.863-.376,7.294-.565,1.016,1.093,1.992,3.095,3.054,3.141,12.504.548,25.02.966,37.533.947,1.74-.003,3.475-2.539,5.213-3.902,40.98.014,81.959,0,122.939.048,55.716.067,111.432.095,167.147.341,13.428.059,26.852.906,40.278,1.39Z" style="fill: #0078d6;"/>
      <path d="m868.52,120.383c1.516.515,3.031,1.031,4.547,1.546.45,2.338,1.294,4.676,1.295,7.013.043,114.091.014,228.182-.007,342.273-1.448.48-2.895.961-4.343,1.441q-.017-11.136-10.826-10.127c-1.706.156-3.439.091-5.157.043-17.136-.479-34.277-1.508-51.408-1.367-51.724.425-103.496-2.021-155.166,2.677-8.179.744-16.57-1.282-24.856-1.202-16.402.157-32.803.787-49.196,1.433-7.314.288-14.605,1.524-21.912,1.577-21.742.159-43.491.103-65.226-.352-2.372-.05-6.404-2.966-6.733-5.021-2.073-12.962-4.789-26.078-4.594-39.103,1.136-75.78-3.647-151.631,2.628-227.354.856-10.325,2.767-12.193,13.401-13.135,7.122-.631,13.873-3.243,17.591-10.326,8.939-1.441,17.872-2.922,26.818-4.314,18.309-2.85,36.603-5.819,54.947-8.426,16.245-2.308,32.59-3.929,48.82-6.33,20.721-3.065,41.356-6.712,62.058-9.913,14.572-2.253,29.199-4.146,43.794-6.259,19.32-2.796,38.619-5.732,57.952-8.432,6.477-.905,13.04-1.18,19.544-1.917,3.56-.403,7.079-1.168,10.617-1.77,2.001-.318,4.002-.635,6.004-.953,3.983-.437,7.967-.873,11.95-1.31,2.362-.143,4.725-.285,7.087-.427,3.457.012,6.915.024,10.372.035Z" style="fill: #0078d6;"/>
      <path d="m424.557,476.312c-2.46-.004-4.92-.008-7.38-.013-8.364.336-16.728.673-25.091,1.009-16.208-.158-32.416-.316-48.624-.474-.525.008-1.05.016-1.575.025-1.442.018-2.884.036-4.326.054-.525.007-1.049.013-1.574.02-1.442.009-2.885.017-4.327.026-.524.003-1.048.006-1.572.009-1.443,0-2.885,0-4.328,0-.524-.002-1.048-.004-1.572-.006-1.443,0-2.885,0-4.328,0-.524,0-1.048,0-1.572-.001-1.443,0-2.886-.002-4.328-.003-.524-.002-1.048-.004-1.572-.005-1.443.001-2.886.003-4.329.004-.524,0-1.047.002-1.571.002-1.443,0-2.887.001-4.33.002-.523,0-1.047,0-1.57,0-1.443.003-2.887.005-4.33.008-.523.001-1.047.002-1.57.004H125.68v-253.992c101.621-13.902,203.51-27.841,305.8-41.835.138,2.028.382,3.936.382,5.845.029,93.586.05,187.173-.014,280.759-.002,2.752-.918,5.504-1.408,8.256-1.961.101-3.921.203-5.882.305Z" style="fill: #0078d6;"/>
      <path d="m400.997,801.416c-9.553-1.136-19.11-2.235-28.657-3.416-13.422-1.66-26.841-3.347-40.252-5.087-11.707-1.518-23.412-3.055-35.1-4.712-12.604-1.786-25.185-3.726-37.778-5.589-12.611-1.866-25.206-3.859-37.841-5.542-13.159-1.753-26.378-3.055-39.535-4.82-17.409-2.336-34.791-4.879-52.167-7.451-4.34-.642-4.623-3.906-4.611-7.602.098-31.418.033-62.837.071-94.256.056-46.141.157-92.281.239-138.422,5.965-8.968,15.105-7.43,23.917-7.407,33.289.09,66.582.272,99.867-.107,10.159-.116,20.325-1.729,30.426-3.111,2.242-.307,4.222-2.534,6.322-3.877,22.264.404,44.527,1.097,66.791,1.11,15.101.009,30.203-.938,45.305-1.457,9.333.169,18.667.338,28,.508,1.042.325,2.083.65,3.125.974.418.067.838.126,1.259.175.346,1.015.691,2.03,1.037,3.046.126,89.906.253,179.812.367,269.718.002,1.468-.157,2.935-.241,4.403-8.66,2.738-17.38,5.308-25.934,8.347-1.845.656-3.088,3.005-4.608,4.574Z" style="fill: #0078d6;"/>
      <path d="m508.557,170.399c-3.718,7.083-10.47,9.695-17.591,10.326-10.634.942-12.545,2.81-13.401,13.135-6.275,75.723-1.493,151.574-2.628,227.354-.195,13.025,2.521,26.141,4.594,39.103.329,2.056,4.361,4.972,6.733,5.021,21.736.455,43.484.511,65.226.352,7.307-.053,14.598-1.289,21.912-1.577,16.393-.646,32.794-1.276,49.196-1.433,8.285-.079,16.677,1.946,24.856,1.202,51.671-4.698,103.442-2.251,155.166-2.677,17.131-.141,34.271.889,51.408,1.367,1.718.048,3.451.113,5.157-.043q10.811-.99,10.826,10.127c-3.458-.016-6.915-.031-10.373-.047-2.634-4.417-6.437-5.967-11.603-5.702-7.408.38-14.851.097-22.279.097-13.182-.492-26.362-1.275-39.548-1.41-22.81-.234-45.624-.055-68.436-.079-2.445-.002-4.921.013-7.331-.336-16.944-2.453-33.418-1.315-49.744,4.464-6.486,2.296-14.311,4.302-20.664,2.798-16.395-3.88-32.6.297-48.833-.847-1.396-.098-2.955,2.114-4.438,3.252-.961.001-1.922.002-2.883.003-.503-.967-1.006-1.934-1.51-2.901-.502.968-1.003,1.937-1.505,2.905-7.835.18-15.67.483-23.506.519-29.458.135-58.917.182-88.375.263-.432-.969-.863-1.938-1.295-2.907.17-33.101.481-66.201.481-99.302,0-61.314-.187-122.627-.277-183.941-.006-4.166.153-8.332.234-12.498.73-.637,1.46-1.274,2.19-1.911,12.746-1.56,25.493-3.119,38.239-4.679Z" style="fill: #017ddc;"/>
      <path d="m586.763,474.848c1.483-1.139,3.042-3.351,4.438-3.252,16.232,1.144,32.437-3.033,48.833.847,6.353,1.504,14.178-.502,20.664-2.798,16.327-5.779,32.8-6.918,49.744-4.464,2.41.349,4.885.333,7.331.336,22.812.023,45.626-.155,68.436.079,13.186.135,26.366.918,39.548,1.41,1.966,2.377,3.932,4.755,5.898,7.132-20.629-.01-41.258-.02-61.887-.029-14.299.025-28.598.05-42.896.075-34.85.478-69.7.956-104.55,1.434-.651-.209-1.302-.417-1.953-.626-11.202-.047-22.403-.095-33.605-.142Z" style="fill: #047fe0;"/>
      <path d="m142.805,508.05c4.897.085,9.794.187,14.691.253,42.8.575,85.6,1.144,128.399,1.715-2.1,1.343-4.08,3.571-6.322,3.877-10.101,1.382-20.267,2.995-30.426,3.111-33.285.379-66.578.197-99.867.107-8.812-.024-17.952-1.561-23.917,7.407.456-5.613-.968-12.822,1.992-16.312,2.181-2.57,10.091-.282,15.448-.158Z" style="fill: #047fe0;"/>
      <path d="m468.983,633.689c.9.966,2.263,1.798,2.59,2.93.46,1.589.141,3.4.172,5.116.49,26.913.744,53.834,1.56,80.737.54,17.788,1.427,35.594,3.032,53.313,1.11,12.253,3.712,24.371,5.647,36.55-3.878-.609-7.756-1.219-11.633-1.828-.58-.362-1.159-.725-1.739-1.087,0,0-.071-.09-.07-.09-.291-.607-.583-1.214-.875-1.821.013-.874.026-1.747.038-2.621.161-1.619.323-3.239.484-4.858-.108-21.463-.216-42.926-.324-64.389.003-.638.006-1.276.009-1.913-.013-17.583-.026-35.165-.039-52.748-.012-.576-.023-1.153-.034-1.729.007-5.324.015-10.647.022-15.971-.012-.575-.023-1.15-.035-1.725.007-1.392.015-2.784.022-4.176-.014-.574-.027-1.147-.041-1.721.004-1.394.008-2.788.011-4.182-.013-.571-.026-1.143-.038-1.714.005-1.395.01-2.791.015-4.186-.011-.57-.022-1.141-.033-1.711.024-1.418.048-2.836.072-4.253.165-.156.492-.354.465-.46-.101-.392-.32-.754-.495-1.127.002-1.412.004-2.823.006-4.235.408.029.811-.005,1.209-.099Z" style="fill: #017ddc;"/>
      <path d="m489.449,512.974c-.894,2.175-1.172,5.137-2.783,6.397-10.923,8.544-11.833,21.395-15.066,33.299-.298,1.097-1.766,1.877-2.692,2.804-.4-.065-.801-.096-1.205-.092v-4.263c.166-.155.496-.35.47-.457-.097-.391-.313-.752-.484-1.125-.004-1.44-.008-2.88-.012-4.32.167-.154.496-.347.47-.455-.094-.39-.307-.751-.475-1.123.008-5.878.016-11.756.023-17.634,4.301-4.345,8.601-8.691,12.902-13.036,2.95.002,5.9.003,8.851.005Z" style="fill: #017ddc;"/>
      <path d="m400.997,801.416c1.52-1.569,2.763-3.918,4.608-4.574,8.553-3.04,17.273-5.609,25.934-8.347,1.389,18.285,1.375,18.398-16.015,16.162-4.9-.63-9.687-2.136-14.527-3.24Z" style="fill: #057edf;"/>
      <path d="m542.543,512.595c-1.738,1.363-3.473,3.899-5.213,3.902-12.513.019-25.029-.399-37.533-.947-1.062-.046-2.038-2.048-3.054-3.141,15.267.062,30.533.124,45.8.186Z" style="fill: #0a80da;"/>
      <path d="m831.654,474.137c-1.966-2.377-3.932-4.755-5.898-7.132,7.428,0,14.87.283,22.279-.097,5.166-.265,8.969,1.285,11.603,5.702-9.328.509-18.656,1.018-27.984,1.528Z" style="fill: #057fdc;"/>
      <path d="m480.598,512.97c-4.301,4.345-8.601,8.691-12.902,13.036v-13.036h12.902Z" style="fill: #057fdc;"/>
      <path d="m468.961,610.089c.773,2.113,2.299,4.274,2.167,6.329-.307,4.794-1.411,9.536-2.193,14.299-.399-1.489-.797-2.979-1.194-4.468-.002-1.453-.005-2.906-.007-4.359-.004-1.007-.007-2.014-.011-3.021.003-.959.006-1.918.009-2.878.004-1.007.009-2.015.014-3.022.004-.928.009-1.856.013-2.783.405.019.806-.013,1.203-.098Z" style="fill: #017ddc;"/>
      <path d="m726.871,474.182c14.299-.025,28.597-.05,42.896-.075-14.299.025-28.598.05-42.896.075Z" style="fill: #5aa5e8;"/>
      <path d="m468.976,599.769c4.424,2.447,4.428,4.885-.016,7.314-.396-.086-.794-.117-1.197-.095.003-.924.006-1.849.009-2.773.167-.155.497-.351.47-.458-.099-.393-.316-.756-.489-1.13.005-.922.01-1.844.015-2.766.407.031.81,0,1.208-.093Z" style="fill: #017ddc;"/>
      <path d="m580.865,474.856c.502-.968,1.003-1.937,1.505-2.905.503.967,1.006,1.934,1.51,2.901-1.005.001-2.01.003-3.015.004Z" style="fill: #047fe0;"/>
      <path d="m467.74,626.25c.398,1.489.795,2.978,1.194,4.468.016.99.031,1.981.047,2.971-.397.095-.8.128-1.208.1-.011-2.513-.022-5.026-.033-7.538Z" style="fill: #3c9fe9;"/>
      <path d="m424.557,476.312c1.961-.102,3.922-.203,5.882-.305-1.961.102-3.922.203-5.882.305Z" style="fill: #c7e8fb;"/>
      <path d="m468.189,800.029c-.162,1.619-.323,3.239-.484,4.858.162-1.619.323-3.239.484-4.858Z" style="fill: #75b9ec;"/>
      <path d="m467.745,612.97c-.005,1.007-.009,2.015-.014,3.022.005-1.007.009-2.015.014-3.022Z" style="fill: #3c9fe9;"/>
      <path d="m467.731,571.663c0,1.017,0,2.034,0,3.052,0-1.017,0-2.034,0-3.052Z" style="fill: #3c9fe9;"/>
      <path d="m431.413,514.374c-.346-1.015-.691-2.03-1.037-3.046.346,1.015.691,2.03,1.037,3.046Z" style="fill: #72b2e8;"/>
      <path d="m470.318,175.078c-.73.637-1.461,1.274-2.19,1.911.73-.637,1.46-1.274,2.19-1.911Z" style="fill: #83c2f0;"/>
      <path d="m467.689,472.73c.432.969.864,1.938,1.295,2.907-.432-.969-.863-1.938-1.295-2.907Z" style="fill: #83c2f0;"/>
      <path d="m467.723,618.87c.004,1.007.007,2.014.011,3.021-.004-1.007-.007-2.014-.011-3.021Z" style="fill: #3c9fe9;"/>
      <path d="m467.763,606.988c.403-.023.801.009,1.197.095,0,1.002,0,2.004,0,3.006-.395.085-.796.117-1.201.098.002-1.066.003-2.132.005-3.198Z" style="fill: #3c9fe9;"/>
      <path d="m429.117,511.153c-1.042-.325-2.083-.65-3.125-.974,1.042.325,2.083.65,3.125.974Z" style="fill: #399be0;"/>
      <path d="m468.976,599.769c-.398.092-.801.123-1.208.093-.007-1.044-.015-2.088-.022-3.132.41,1.013.82,2.026,1.23,3.039Z" style="fill: #3c9fe9;"/>
      <path d="m467.716,583.46c0,1.017,0,2.034-.001,3.052,0-1.017,0-2.034.001-3.052Z" style="fill: #3c9fe9;"/>
      <path d="m467.725,577.559c-.001,1.018-.002,2.036-.003,3.054.001-1.018.002-2.036.003-3.054Z" style="fill: #3c9fe9;"/>
      <path d="m467.753,602.628c.173.374.39.737.489,1.13.027.106-.304.303-.47.458-.006-.529-.012-1.058-.019-1.587Z" style="fill: #3c9fe9;"/>
      <path d="m620.368,474.99c.651.209,1.302.417,1.953.626-.651-.209-1.302-.417-1.953-.626Z" style="fill: #72b2e8;"/>
      <path d="m467.716,561.315c.174.382.394.753.493,1.154.027.109-.311.308-.482.466-.004-.54-.007-1.08-.011-1.621Z" style="fill: #3c9fe9;"/>
      <path d="m467.703,555.382c.404-.004.805.027,1.205.092-.396.52-.793,1.04-1.19,1.561-.005-.551-.01-1.102-.015-1.653Z" style="fill: #3c9fe9;"/>
      <path d="m467.721,590.812c.177.382.398.752.5,1.153.027.109-.31.309-.48.468-.007-.54-.013-1.08-.02-1.621Z" style="fill: #3c9fe9;"/>
      <path d="m467.69,549.538c.171.372.387.734.484,1.125.026.107-.304.302-.47.457-.005-.527-.009-1.054-.014-1.582Z" style="fill: #3c9fe9;"/>
      <path d="m312.388,476.954c.524.002,1.048.004,1.572.005-.524-.002-1.048-.004-1.572-.005Z" style="fill: #3b95d9;"/>
      <path d="m467.673,543.64c.168.372.382.733.475,1.123.026.108-.304.301-.47.455-.002-.526-.003-1.052-.005-1.578Z" style="fill: #3c9fe9;"/>
      <path d="m318.288,476.962c.524,0,1.048,0,1.572.001-.524,0-1.048,0-1.572-.001Z" style="fill: #3b95d9;"/>
      <path d="m306.488,476.96c.524,0,1.047-.001,1.571-.002-.524,0-1.047.001-1.571.002Z" style="fill: #3b95d9;"/>
      <path d="m300.588,476.961c.523,0,1.047,0,1.57,0-.523,0-1.047,0-1.57,0Z" style="fill: #3b95d9;"/>
      <path d="m324.188,476.963c.524.002,1.048.004,1.572.006-.524-.002-1.048-.004-1.572-.006Z" style="fill: #3b95d9;"/>
      <path d="m294.688,476.973c.523-.001,1.047-.002,1.57-.004-.523.001-1.047.002-1.57.004Z" style="fill: #3b95d9;"/>
      <path d="m330.088,476.968c.524-.003,1.048-.006,1.572-.009-.524.003-1.048.006-1.572.009Z" style="fill: #3b95d9;"/>
      <path d="m467.767,638.023c.175.373.394.735.495,1.127.027.106-.3.304-.465.46-.01-.529-.02-1.058-.03-1.587Z" style="fill: #3c9fe9;"/>
      <path d="m467.725,643.864c.011.57.022,1.141.033,1.711-.011-.57-.022-1.141-.033-1.711Z" style="fill: #59aceb;"/>
      <path d="m467.743,649.761c.013.571.026,1.143.038,1.714-.013-.571-.026-1.143-.038-1.714Z" style="fill: #59aceb;"/>
      <path d="m467.77,655.657c.013.574.027,1.147.041,1.721-.013-.574-.027-1.147-.041-1.721Z" style="fill: #59aceb;"/>
      <path d="m467.789,661.554c.011.575.023,1.15.035,1.725-.011-.575-.023-1.15-.035-1.725Z" style="fill: #59aceb;"/>
      <path d="m467.801,679.25c.011.576.023,1.153.034,1.729-.011-.576-.023-1.153-.034-1.729Z" style="fill: #59aceb;"/>
      <path d="m467.874,733.726c-.003.638-.006,1.276-.009,1.913.003-.638.006-1.276.009-1.913Z" style="fill: #75b9ec;"/>
      <path d="m335.988,476.933c.525-.007,1.049-.013,1.574-.02-.525.007-1.049.013-1.574.02Z" style="fill: #3b95d9;"/>
      <path d="m341.887,476.859c.525-.008,1.05-.016,1.575-.025-.525.008-1.05.016-1.575.025Z" style="fill: #3b95d9;"/>
      <path d="m467.667,807.508c.292.607.584,1.214.875,1.821-.292-.607-.584-1.214-.875-1.821Z" style="fill: #75b9ec;"/>
      <path d="m468.612,809.419c.58.362,1.159.725,1.739,1.087-.58-.362-1.159-.725-1.739-1.087Z" style="fill: #75b9ec;"/>
      <path d="m467.728,567.216c.174.382.394.752.493,1.153.027.109-.311.307-.482.465-.004-.539-.007-1.078-.011-1.618Z" style="fill: #3c9fe9;"/>
      <path d="m858.147,120.347c-2.362.142-4.725.285-7.087.427,1.804-1.017,3.608-2.035,5.41-3.052,1.943-.02,3.887-.041,5.834-.063-1.384.895-2.771,1.791-4.157,2.688Z" style="fill: #83c2f0;"/>
      <path d="m858.147,120.347c1.387-.896,2.774-1.792,4.157-2.688,1.965-.114,3.934-.23,5.898-.345.103,1.023.21,2.046.317,3.069-3.458-.012-6.915-.024-10.373-.036Z" style="fill: #3c9fe9;"/>
      <rect width="990" height="987" style="fill: none;"/>
    </g>
  </g>
</svg>