<?xml version="1.0" encoding="UTF-8"?>
<svg id="Layer_2" data-name="Layer 2" xmlns="http://www.w3.org/2000/svg" width="990" height="987" viewBox="0 0 990 987">
  <g id="Layer_3" data-name="Layer 3">
    <g>
      <path d="m85.657,754.774c0-161.019,0-322.037,0-483.056.551-2.133,1.102-4.266,1.653-6.4.903-2.737,1.806-5.474,2.709-8.211.604-4.234,1.208-8.467,1.812-12.701,3.131-9.896,5.774-19.98,9.475-29.658,18.092-47.311,51.076-79.743,97.848-99.159,11.336-4.706,25.386-2.92,34.132-13.846-.671,5.468,2.722,5.115,6.347,4.432,5.608,1.668,7.342-2.76,9.72-6.175,160.484,0,320.967,0,481.451,0,1.48,2.131,3.529,6.287,4.344,6.058,4.456-1.255,11.52,4.905,13.327-4.202,1.619-.02,3.239-.039,4.858-.059,3.691,1.596,7.382,3.192,11.073,4.788,13.065,4.311,26.588,7.59,39.1,13.147,26.231,11.65,48.148,29.389,65.62,52.151,14.512,18.905,25.877,39.497,30.519,63.338,1.053,5.405,3.884,10.463,5.896,15.681.598,1.589,1.196,3.178,1.794,4.767v511.943c-2.09,2.915-5.074,5.544-6.118,8.795-4.786,14.903-7.145,30.886-13.838,44.818-16.912,35.202-43.057,62.359-78.505,79.522-12.172,5.893-25.254,9.906-37.92,14.778-7.09-.021-14.585-1.312-19.287,6.151H246.14c-2.065-.598-4.131-1.195-6.196-1.793-2.423-1.09-4.846-2.18-8.131-3.658.457,1.811.683,2.706.91,3.601-1.412.616-2.824,1.233-4.236,1.849h-3.21c.973-6.07-3.753-6.775-7.713-8.067-7.67-2.504-15.719-4.143-23.008-7.464-24.291-11.07-45.564-26.239-63.038-46.783-16.11-18.94-28.548-39.631-35.13-63.736-2.736-10.02-5.975-19.903-8.986-29.848-.583-3.668-1.165-7.336-1.747-11.004Zm579.404-338.47c.383-.577.767-1.153,1.15-1.73.039-14.454.078-28.909.116-43.363-.413-.608-.826-1.215-1.239-1.823-1.558-11.939-1.963-24.17-4.903-35.758-7.063-27.841-23.944-49.642-44.624-69.029-31.703-29.72-70.306-41.042-112.41-42.405-14.398-.466-28.975,1.234-43.317,3.111-28.819,3.77-54.692,15.397-76.698,34.075-36.528,31.003-56.014,70.814-56.631,119.056-.228,17.789.944,35.597,1.506,53.396.033,1.04.41,2.067.471,3.109.505,8.613.973,17.228,1.599,28.492-12.373-3.012-22.967-4.692-32.906-8.22-15.015-5.33-30.578-3.322-39.818,6.639-8.74,9.423-9.363,21.471.06,30.13,6.755,6.207,14.889,11.305,23.157,15.375,9.979,4.913,21.062,7.566,31.106,12.371,14.966,7.159,18.546,17.011,10.497,31.252-9.38,16.598-19.146,33.205-30.735,48.277-21.964,28.567-51.038,46.918-86.597,54.434-6.99,1.478-14.301,3.329-16.236,11.339-1.811,7.498,1.264,14.347,7.064,19.083,5.342,4.362,11.16,9.002,17.559,11.043,17.52,5.588,35.517,9.665,53.166,14.88,2.82.833,5.96,4.045,6.965,6.866,2.332,6.539,3.014,13.651,5.157,20.275,3.355,10.37,11.714,15.425,22.184,12.558,15.492-4.242,31.163-4.465,47.01-4.723,17.234-.28,32.5,4.729,46.519,14.319,10.347,7.078,20.628,14.253,31.016,21.269,34.229,23.115,71.7,26.823,110.256,15.344,14.848-4.421,28.242-14.06,41.921-21.973,13.022-7.534,24.768-17.8,38.472-23.515,24.517-10.225,50.354-5.621,75.589-1.472,12.752,2.096,21.839-2.533,24.77-14.886.838-3.53.72-7.33,1.848-10.739,2.014-6.084,2.266-13.544,10.911-15.116,10.75-1.954,21.533-3.873,32.129-6.502,14.554-3.611,28.534-8.594,39.014-20.278,9.706-10.821,6.174-22.87-7.966-26.192-27.628-6.489-52.247-18.294-73.175-38.037-22.703-21.417-40.042-46.053-50.888-75.38-2.202-5.955-1.087-10.728,3.287-13.858,7.281-5.21,15.105-9.822,23.152-13.765,12.055-5.908,24.971-10.179,36.644-16.713,11.149-6.24,14.899-22.587,8.799-31.34-8.585-12.322-29.083-17.916-43.149-12.325-7.412,2.945-15.094,5.657-22.908,7.026-9.206,1.613-10.792-.256-10.509-9.621.352-11.657,1.061-23.304,1.615-34.955Z" style="fill: #fefb00;"/>
      <path d="m748.472,101.857c-1.807,9.106-8.871,2.946-13.327,4.201-.815.229-2.865-3.926-4.344-6.058,4.815,0,9.629,0,14.444,0,1.076.619,2.152,1.238,3.228,1.857Z" style="fill: #fffe16;"/>
      <path d="m770.951,915.525c-.01,2.05-.02,4.101-.029,6.151h-19.258c4.703-7.463,12.198-6.172,19.287-6.151Z" style="fill: #eff6d7;"/>
      <path d="m85.657,244.435c2.058-.01,4.116-.02,6.173-.029-.604,4.234-1.208,8.467-1.812,12.701-.803.065-1.607.13-2.41.195-.651-.009-1.301-.019-1.952-.028v-12.839Z" style="fill: #ffffe6;"/>
      <path d="m766.108,100c-.568,2.195-1.136,4.39-1.704,6.585-3.691-1.596-7.382-3.192-11.073-4.79,1.049-.6,2.099-1.198,3.149-1.796,3.21,0,6.419,0,9.629,0Z" style="fill: #fdfcdc;"/>
      <path d="m249.35,100c-2.378,3.415-4.112,7.844-9.719,6.176.03-2.058.06-4.117.09-6.176h9.629Z" style="fill: #fefe79;"/>
      <path d="m239.721,100c-.03,2.059-.06,4.118-.09,6.176-3.625.682-7.018,1.035-6.347-4.433.006-.581.012-1.162.018-1.743,2.14,0,4.28,0,6.419,0Z" style="fill: #fdffa7;"/>
      <path d="m905.539,250.902c.598-3.225,1.196-6.451,1.794-9.676v14.444c-.598-1.589-1.196-3.178-1.794-4.767Z" style="fill: #c0d4ce;"/>
      <path d="m85.657,257.274c.651.009,1.301.019,1.951.026-.1,2.672-.199,5.345-.298,8.018-.551,2.133-1.102,4.266-1.653,6.4,0-4.815,0-9.629,0-14.444Z" style="fill: #b7cf79;"/>
      <path d="m232.723,919.828c-.226-.895-.452-1.791-.91-3.601,3.285,1.478,5.708,2.568,8.131,3.658-.609.598-1.219,1.195-1.828,1.792h-3.21c-.728-.616-1.456-1.233-2.184-1.849Z" style="fill: #eaf5bc;"/>
      <path d="m756.479,100c-1.05.598-2.099,1.196-3.149,1.796-1.619.021-3.238.04-4.858.06-1.076-.618-2.152-1.237-3.228-1.856,3.745,0,7.489,0,11.234,0Z" style="fill: #c7c48e;"/>
      <path d="m85.657,754.774c.582,3.668,1.164,7.336,1.747,11.004,0,0-.211.654-.21.652-.512-.142-1.025-.282-1.537-.421,0-3.745,0-7.489,0-11.234Z" style="fill: #bcd599;"/>
      <path d="m238.116,921.677c.609-.597,1.219-1.194,1.828-1.792,2.065.597,4.131,1.194,6.196,1.792h-8.024Z" style="fill: #c0caa9;"/>
      <path d="m232.723,919.828c.728.616,1.456,1.233,2.184,1.849h-6.419c1.412-.616,2.824-1.233,4.236-1.849Z" style="fill: #c0caa9;"/>
      <path d="m85.657,766.007c.513.14,1.026.279,1.537.421-.513.396-1.025.79-1.537,1.183,0-.535,0-1.07,0-1.605Z" style="fill: #cfd5dd;"/>
      <path d="m666.327,371.211c-.039,14.454-.078,28.909-.116,43.363-.383.577-.767,1.153-1.15,1.73-.555,11.651-1.263,23.298-1.615,34.955-.283,9.366,1.303,11.235,10.509,9.621,7.814-1.369,15.497-4.08,22.908-7.026,14.067-5.59,34.564.004,43.149,12.325,6.099,8.754,2.349,25.1-8.799,31.34-11.673,6.534-24.589,10.805-36.644,16.713-8.046,3.943-15.87,8.555-23.152,13.765-4.374,3.13-5.489,7.903-3.287,13.858,10.846,29.327,28.186,53.963,50.888,75.38,20.928,19.743,45.547,31.548,73.175,38.037,14.14,3.321,17.672,15.37,7.966,26.192-10.48,11.684-24.459,16.667-39.014,20.278-10.596,2.629-21.378,4.548-32.129,6.502-8.645,1.571-8.897,9.031-10.911,15.116-1.128,3.409-1.011,7.208-1.848,10.739-2.931,12.353-12.018,16.983-24.77,14.886-25.235-4.148-51.072-8.752-75.589,1.472-13.704,5.715-25.449,15.981-38.472,23.515-13.679,7.914-27.073,17.553-41.921,21.973-38.556,11.479-76.027,7.772-110.256-15.344-10.389-7.016-20.67-14.191-31.016-21.269-14.019-9.59-29.284-14.599-46.519-14.319-15.847.258-31.518.481-47.01,4.723-10.47,2.867-18.829-2.188-22.184-12.558-2.143-6.624-2.826-13.736-5.157-20.275-1.006-2.82-4.145-6.032-6.965-6.866-17.649-5.215-35.645-9.293-53.166-14.88-6.399-2.041-12.217-6.681-17.559-11.043-5.8-4.736-8.875-11.585-7.064-19.083,1.935-8.01,9.246-9.862,16.236-11.339,35.558-7.516,64.632-25.867,86.597-54.434,11.589-15.073,21.355-31.68,30.735-48.277,8.049-14.242,4.469-24.094-10.497-31.252-10.044-4.804-21.127-7.458-31.106-12.371-8.268-4.071-16.402-9.168-23.157-15.375-9.423-8.659-8.799-20.707-.06-30.13,9.239-9.961,24.803-11.969,39.818-6.639,9.938,3.528,20.533,5.208,32.906,8.22-.626-11.264-1.094-19.879-1.599-28.492-.061-1.042-.438-2.069-.471-3.109-.562-17.799-1.733-35.606-1.506-53.396.617-48.242,20.103-88.053,56.631-119.056,22.006-18.677,47.879-30.304,76.698-34.075,14.343-1.876,28.919-3.577,43.317-3.111,42.103,1.364,80.707,12.685,112.41,42.405,20.68,19.386,37.561,41.188,44.624,69.029,2.94,11.588,3.345,23.819,4.903,35.758.413.608.826,1.215,1.239,1.823Zm124.012,299.046c-1.661-.875-2.728-1.664-3.925-2.03-10.078-3.082-20.483-5.334-30.218-9.255-28.287-11.394-50.243-31.116-69.039-54.63-14.225-17.796-26.283-36.827-33.389-58.728-3.423-10.549-.084-19.249,6.32-27.322,7.975-10.054,19.439-14.242,30.91-18.721,10.982-4.288,21.72-9.289,32.257-14.59,5.139-2.585,6.537-10.928,2.484-13.265-6.6-3.805-13.101-7.583-21.877-4.471-12.124,4.3-24.014,10.292-37.74,8.381-7.407-1.031-17.178-6.843-17.092-12.104.29-17.786-.2-35.705,1.856-53.31,2.641-22.609,1.463-44.921-3.452-66.742-7.857-34.884-28.485-61.451-57.977-81.351-26.303-17.749-56.059-23.837-86.995-25.595-21.662-1.231-42.967,1.606-63.498,8.628-24.234,8.288-45.189,21.395-62.315,41.066-19.653,22.573-33.06,47.792-33.917,77.808-.843,29.519.763,59.108,1.342,88.666.025,1.275.41,2.583.84,3.802,2.326,6.596.013,11.041-5.973,14.307-13.742,7.498-27.433,5.493-41.513.907-6.818-2.221-14.197-3.974-21.244-3.725-3.648.129-8.656,4.463-10.139,8.088-.983,2.403,2.603,7.462,5.24,10.321,2.276,2.468,5.975,3.826,9.263,5.125,11.237,4.44,22.712,8.304,33.829,13.018,12.613,5.348,23.283,12.943,25.963,27.745,1.981,10.94-2.24,20.612-6.892,29.944-13.71,27.503-31.353,52.174-55.491,71.48-19.492,15.591-40.491,28.67-65.814,32.951-3.279.554-6.356,2.306-10.572,3.897,11.599,10.491,24.531,14.894,37.749,18.245,11.033,2.797,22.362,4.418,33.546,6.63,8.472,1.676,13.388,8.291,15.074,20.078,2.515,17.584,3.71,19.233,14.429,18.414,5.736-.438,11.437-2.103,17.143-2.046,17.871.18,36.029-.903,53.528,1.91,20.367,3.274,35.827,17.785,52.285,29.329,22.988,16.123,47.598,25.735,76.462,24.053,16.246-.947,31.54-3.934,45.451-11.98,12.751-7.375,24.88-15.845,37.115-24.083,14.711-9.905,29.964-19.175,48.012-20.163,20.563-1.125,41.235-.961,61.607,3.607,2.942.66,7.225,1.282,8.17-4.736,1.272-8.107,3.295-16.304,6.502-23.82,1.781-4.175,6.07-8.906,10.197-10.138,10.89-3.249,22.42-4.28,33.491-7.017,13.77-3.405,27.714-6.884,38.007-18.58Z" style="fill: #020301;"/>
      <path d="m87.309,265.318c.099-2.673.198-5.346.298-8.018.804-.063,1.608-.128,2.411-.193-.903,2.737-1.806,5.474-2.709,8.211Z" style="fill: #ffffa3;"/>
      <path d="m666.327,371.211c-.413-.608-.826-1.215-1.239-1.823.413.608.826,1.215,1.239,1.823Z" style="fill: #0c1400;"/>
      <path d="m665.06,416.304c.383-.577.767-1.153,1.15-1.73-.383.577-.767,1.153-1.15,1.73Z" style="fill: #0c1400;"/>
      <path d="m790.339,670.257c-10.293,11.697-24.237,15.175-38.007,18.58-11.071,2.738-22.601,3.768-33.491,7.017-4.128,1.231-8.416,5.963-10.197,10.138-3.207,7.515-5.23,15.712-6.502,23.82-.944,6.018-5.227,5.396-8.17,4.736-20.372-4.568-41.044-4.733-61.607-3.607-18.048.988-33.301,10.258-48.012,20.163-12.235,8.238-24.365,16.709-37.115,24.083-13.911,8.046-29.205,11.033-45.451,11.98-28.864,1.682-53.474-7.93-76.462-24.053-16.459-11.544-31.919-26.055-52.285-29.329-17.499-2.813-35.657-1.73-53.528-1.91-5.705-.057-11.406,1.608-17.143,2.046-10.719.819-11.914-.83-14.429-18.414-1.686-11.787-6.601-18.402-15.074-20.078-11.184-2.213-22.513-3.833-33.546-6.63-13.218-3.351-26.149-7.754-37.749-18.245,4.215-1.591,7.292-3.343,10.572-3.897,25.322-4.281,46.321-17.36,65.814-32.951,24.137-19.306,41.78-43.977,55.491-71.48,4.652-9.331,8.873-19.003,6.892-29.944-2.68-14.802-13.351-22.397-25.963-27.745-11.117-4.714-22.591-8.577-33.829-13.018-3.287-1.299-6.986-2.656-9.263-5.125-2.637-2.859-6.223-7.918-5.24-10.321,1.483-3.625,6.491-7.959,10.139-8.088,7.047-.249,14.425,1.504,21.244,3.725,14.08,4.586,27.77,6.59,41.513-.907,5.986-3.266,8.299-7.711,5.973-14.307-.43-1.218-.815-2.527-.84-3.802-.58-29.557-2.185-59.147-1.342-88.666.857-30.016,14.264-55.235,33.917-77.808,17.126-19.671,38.082-32.778,62.315-41.066,20.532-7.022,41.836-9.859,63.498-8.628,30.935,1.758,60.691,7.846,86.995,25.595,29.492,19.9,50.12,46.467,57.977,81.351,4.915,21.821,6.093,44.132,3.452,66.742-2.056,17.606-1.566,35.525-1.856,53.31-.086,5.261,9.685,11.073,17.092,12.104,13.726,1.911,25.615-4.081,37.74-8.381,8.775-3.112,15.277.666,21.877,4.471,4.053,2.337,2.654,10.679-2.484,13.265-10.537,5.301-21.275,10.302-32.257,14.59-11.47,4.479-22.935,8.667-30.91,18.721-6.404,8.073-9.742,16.773-6.32,27.322,7.106,21.9,19.163,40.932,33.389,58.728,18.797,23.514,40.753,43.236,69.039,54.63,9.735,3.921,20.14,6.173,30.218,9.255,1.197.366,2.264,1.156,3.925,2.03Z" style="fill: none;"/>
      <rect width="990" height="987" style="fill: none;"/>
    </g>
  </g>
</svg>