<?xml version="1.0" encoding="UTF-8"?>
<svg id="Layer_2" data-name="Layer 2" xmlns="http://www.w3.org/2000/svg" width="990.5" height="989.833" viewBox="0 0 990.5 989.833">
  <g id="Layer_4" data-name="Layer 4">
    <g>
      <path d="m989.833,989.833H0V0h989.833v989.833ZM582.422,123.71c-9.198-1.44-18.397-2.879-27.595-4.319-9.572-1.269-19.142-2.548-28.715-3.805-29.891-3.927-59.626-1.926-89.299,2.376-3.073.524-6.134,1.148-9.222,1.555-32.13,4.235-62.865,13.939-91.92,27.591-57.136,26.847-107.138,63.199-145.052,114.813-23.038,31.362-42.893,64.297-55.574,101.261,0,0,0,.01,0,.01-.673,1.947-1.345,3.893-2.018,5.84-11.922,29.206-17.093,59.941-20.594,91.053-.01,1.861-.021,3.722-.031,5.584-.062,1.328-.125,2.655-.187,3.983-6.302,18.056-4.042,36.113-.012,54.171,1.314,14.387,1.012,29.152,4.259,43.089,8.331,35.756,19.017,70.6,37.409,103.081,24.534,43.326,53.747,82.313,91.859,114.581,37.447,31.705,78.198,57.382,125.05,73.021,32.663,10.903,66.134,17.783,100.331,19.878,30.683,1.88,61.352-.164,91.824-5.388,39.058-6.696,76.445-18.739,110.852-37.874,24.651-13.709,47.041-31.487,70.439-47.45,3.464-2.725,7.384-5.034,10.314-8.246,14.926-16.365,29.596-32.964,44.355-49.482,6.362-8.067,13.198-15.808,19.001-24.258,21.75-31.671,35.384-67.099,46.272-103.612,4.135-13.868,6.517-28.259,9.698-42.411.488-1.305.976-2.61,1.464-3.915.022-1.312.044-2.624.067-3.935,1.299-12.26,2.598-24.519,3.897-36.779,0-13.528.001-27.056.002-40.584-1.811-14.871-3.622-29.743-5.433-44.614-.768-4.467-1.536-8.934-2.305-13.401-1.846-8.983-2.976-18.186-5.665-26.908-9.769-31.691-23.159-61.783-40.174-90.338-23.817-39.973-54.417-73.842-90.612-102.79-27.313-21.845-56.944-40.048-89.639-52.516-18.194-6.938-37.258-11.592-55.93-17.276-2.372-.661-4.744-1.322-7.117-1.982Z" style="fill: none;"/>
      <path d="m744.226,786.76c-23.398,15.963-45.788,33.741-70.439,47.45-34.408,19.135-71.795,31.179-110.852,37.874-30.472,5.224-61.141,7.269-91.824,5.388-34.197-2.096-67.668-8.976-100.331-19.878-46.852-15.639-87.603-41.316-125.05-73.021-38.112-32.268-67.325-71.255-91.859-114.581-18.392-32.481-29.079-67.325-37.409-103.081-3.247-13.937-2.945-28.701-4.259-43.089,1.184-.418,2.723-.496,3.498-1.305,9.322-9.73,10.613-38.931,2.084-49.62-1.25-1.566-3.684-2.188-5.57-3.246.062-1.328.125-2.655.187-3.982.01-1.861.021-3.723.031-5.584,3.5-31.112,8.671-61.846,20.594-91.053.673-1.947,1.345-3.893,2.018-5.84,0,0,0-.01,0-.01,10.546-3.689,9.624-14.427,13.647-22.136,1.303-2.496,2.43-6.14,4.538-6.97,8.053-3.17,10.131-7.82,5.813-13.788,4.048-4.797,7.367-8.816,10.78-12.753,5.161-5.953,10.389-11.849,15.588-17.77-.626,5.993.749,15.775-2.214,17.341-14.991,7.92-14.805,24.179-22.117,36.096-1.97,3.211-.494,8.38-2.053,12.029-8.353,19.552-17.165,38.908-25.818,58.332v5.802c-1.934,5.158-3.867,10.315-5.801,15.473-.615,2.037-1.823,4.097-1.745,6.107.401,10.345.873,20.701,1.815,31.008,1.098,12.025,2.681,24.007,4.153,35.995.101.826,1.033,1.55,1.579,2.321v11.605c-7.307,12.561-8.945,25.405-1.934,38.682.645,1.934,1.289,3.868,1.934,5.802,5.157,17.407,10.313,34.814,15.47,52.221v7.736c8.551,18.279,16.392,36.941,25.945,54.681,4.991,9.268,12.992,16.914,19.637,25.29.786.991,1.994,1.848,2.325,2.968,4.431,14.99,16.408,23.552,27.368,33.23,8.267,7.3,16.427,15.113,22.869,23.98,6.958,9.577,11.723,20.533,25.451,22.535,2.982.435,5.441,4.187,8.227,6.296,4.011,3.037,7.804,6.551,12.225,8.817,7.869,4.033,16.346,6.886,24.198,10.948,14.957,7.737,29.654,15.977,44.46,24.008h3.867c16.426,5.736,32.46,13.33,50.675,10.539,1.158-.177,2.617-.002,3.606.575,18.971,11.074,40.199,10.205,60.711,9.593,11.454-.341,22.012.83,32.78,3.717,7.717,2.069,14.312.298,20.242-5.529,2.687-2.64,6.843-4.354,10.619-5.185,5.879-1.293,12.012-1.401,18.021-2.143,14.071-1.737,29.383,1.793,41.19-9.633h5.801c3.003,1.229,7.013,4.328,8.828,3.35,6.344-3.417,13.788-7.099,17.313-12.834,4.002-6.51,8.659-7.025,14.794-8.177,5.935-1.115,11.891-3.638,17.09-6.781,6.955-4.203,12.384-11.52,22.263-6.886,1.933.907,5.676-.564,7.894-2.003,10.222-6.632,18.5-15.106,26.675-24.367,12.504-14.165,28.197-25.468,42.041-38.511,7.95-7.49,14.617-16.07,15.527-27.885.149-1.936,3.343-3.872,5.452-5.347,1.698-1.187,4.804-1.107,5.706-2.566,7.37-11.923,20-20.02,24.23-34.317,1.87-6.319,5.651-12.058,8.413-18.13,4.734-10.405,10.391-20.544,13.727-31.39,3.497-11.371,4.072-23.61,7.083-35.168,4.881-18.738,12.32-36.956,15.551-55.926,2.043-11.992,3.751-25.268-3.765-37.474-4.65-7.551.273-20.181,8.361-26.94,4.406,1.296,8.811,2.591,13.217,3.886,0,13.528-.001,27.056-.002,40.584-11.454,2.791-13.302,11.539-13.202,21.423.07,6.915-1.611,14.979,9.305,15.356-.022,1.312-.044,2.624-.066,3.935-.488,1.305-.976,2.61-1.464,3.915-3.181,14.152-5.563,28.543-9.698,42.411-10.888,36.513-24.522,71.941-46.272,103.612-5.803,8.451-12.639,16.192-19.002,24.258-6.359,4.456-13.165,8.403-18.964,13.497-7.363,6.468-13.989,13.789-20.785,20.884-6.495,6.78-15.192,12.217-14.92,23.346Z" style="fill: #5865f2;"/>
      <path d="m589.538,125.692c18.672,5.684,37.736,10.338,55.93,17.276,32.695,12.468,62.326,30.672,89.639,52.516,36.196,28.949,66.795,62.817,90.612,102.79,17.015,28.556,30.405,58.647,40.174,90.338,2.689,8.723,3.82,17.926,5.665,26.908-8.957,1.818-13.252-1.322-13.087-10.646.141-7.935-.346-15.29-5.962-21.609-1.313-1.477-1.152-4.191-1.918-6.243-3.16-8.473-6.416-16.911-9.637-25.361-1.935-4.511-3.87-9.023-5.805-13.534-5.16-10.314-10.321-20.628-15.481-30.942-1.288-1.935-2.577-3.869-3.865-5.804-3.866-5.803-7.732-11.606-11.598-17.409-1.289-1.934-2.578-3.868-3.867-5.802-3.224-4.514-6.447-9.028-9.671-13.543-.642-.644-1.285-1.288-1.927-1.931-1.937-2.578-3.873-5.155-5.81-7.733-.648-1.289-1.297-2.577-1.946-3.866-1.931-1.292-3.861-2.583-5.792-3.875-1.285-.645-2.57-1.289-3.856-1.934-1.291-1.289-2.583-2.579-3.874-3.868h0c-5.158-5.8-10.316-11.601-15.474-17.402-1.288-.645-2.577-1.29-3.865-1.935-7.09-7.093-14.18-14.185-21.271-21.278-.644-.645-1.288-1.289-1.931-1.933-2.578-1.293-5.155-2.586-7.733-3.879-1.938-1.929-3.876-3.859-5.813-5.788-1.931-1.291-3.861-2.582-5.792-3.873,0,0,0,.001,0,.001-6.987-4.676-14-9.313-20.955-14.036-13.025-8.844-26.431-16.686-42.849-16.919-9.025-10.245-21.955-12.637-34.09-15.097-12.574-2.549-17.207-4.435-18.152-13.589Z" style="fill: #616efa;"/>
      <path d="m185.41,289.765c-5.199,5.92-10.427,11.816-15.588,17.77-3.413,3.937-6.732,7.956-10.78,12.753,4.317,5.968,2.239,10.618-5.813,13.788-2.108.83-3.236,4.475-4.538,6.97-4.023,7.709-3.101,18.447-13.647,22.136,12.682-36.964,32.536-69.899,55.574-101.261,37.914-51.613,87.916-87.965,145.052-114.813,29.055-13.653,59.79-23.356,91.92-27.591,3.089-.407,6.149-1.031,9.222-1.555,1.245,7.094-4.783,14.376-12.593,12.622-10.894-2.447-19.185,2.196-28.028,6.402-6.821.684-14.733-2.283-19.352,5.78-2.573,1.293-5.147,2.585-7.721,3.878-1.934.004-3.868.008-5.802.011-5.16,2.577-10.321,5.153-15.481,7.73-.641,0-1.282,0-1.922.005-9.52,4.007-19.292,7.518-28.478,12.182-7.011,3.56-13.28,8.583-19.878,12.955-2.574,1.939-5.147,3.877-7.721,5.816-3.681,1.422-7.731,2.275-10.97,4.378-8.452,5.488-16.545,11.527-24.788,17.337-2.593,1.828-5.585,3.259-7.748,5.497-10.618,10.984-21.149,22.06-31.391,33.393-2.152,2.381-2.963,5.975-4.392,9.01h.001c-2.168,1.21-4.963,1.921-6.394,3.719-6.114,7.686-11.922,15.624-17.593,23.646-.995,1.408-.796,3.66-1.149,5.522-.003.64-.004,1.28-.003,1.92Z" style="fill: #606ff9;"/>
      <path d="m396.191,136.986c8.843-4.206,17.134-8.849,28.028-6.402,7.811,1.754,13.838-5.528,12.593-12.622,29.673-4.303,59.408-6.304,89.299-2.376,9.573,1.258,19.144,2.536,28.715,3.805,2.554,3.929,5.109,7.858,7.663,11.787-2.895,1.058-6.173,1.565-8.616,3.271-9.401,6.565-11.199,5.993-17.038-3.288-2.03-3.227-6.661-6.871-10.051-6.819-12.376.19-24.753,1.654-37.086,3.031-12.044,1.345-25.271-.957-34.272,10.675-1.142,1.476-3.903,1.7-6.546,2.757-3.281-11.835-10.901-10.647-19.656-7.567-9.818,3.454-19.849,6.309-29.846,9.224-.835.244-2.115-1.036-3.188-1.609,0-1.289,0-2.578.001-3.866Z" style="fill: #5865f2;"/>
      <path d="m840.955,351.662c3.221,8.451,6.476,16.888,9.637,25.361.765,2.052.605,4.766,1.918,6.243,5.616,6.319,6.103,13.674,5.962,21.609-.166,9.324,4.13,12.465,13.087,10.646.768,4.467,1.536,8.934,2.304,13.401-10.012,6.244-7.653,16.269-7.777,25.523-.051,3.778-.008,7.558-.008,11.337-1.577-5.257-3.925-10.424-4.549-15.791-.912-7.849.514-16.071-1.074-23.715-1.893-9.107-6.198-17.684-8.94-26.65-2.585-8.454-4.278-17.178-6.79-25.657-1.476-4.982-3.785-9.718-5.719-14.564v-5.802c.65-.648,1.3-1.295,1.95-1.943Z" style="fill: #5865f2;"/>
      <path d="m589.538,125.692c.945,9.154,5.577,11.04,18.152,13.589,12.136,2.46,25.065,4.852,34.09,15.097,0,0-.012.013-.012.013-7.871-.333-14.909-8.99-23.428-2.494-5.19,3.957-7.92,3.003-10.615-3.185-3.846-8.831-11.703-9.343-19.413-3.321-2.175,1.698-6.941.077-10.518-.021,1.448-7.823-5.835-9.792-9.505-14.183,6.285.486,11.938-.225,14.133-7.476,2.372.661,4.744,1.322,7.117,1.982Z" style="fill: #5865f2;"/>
      <path d="m112.214,469.651c1.886,1.058,4.32,1.68,5.57,3.246,8.529,10.689,7.239,39.89-2.084,49.62-.776.809-2.314.887-3.498,1.305-4.03-18.058-6.29-36.115.012-54.171Z" style="fill: #6371f9;"/>
      <path d="m744.226,786.76c-.272-11.13,8.425-16.566,14.92-23.346,6.796-7.095,13.422-14.417,20.785-20.884,5.799-5.094,12.605-9.041,18.964-13.497-14.759,16.517-29.429,33.117-44.355,49.482-2.93,3.212-6.85,5.521-10.314,8.246Z" style="fill: #6270f7;"/>
      <path d="m866.077,465.784c0-3.779-.042-7.559.008-11.337.124-9.254-2.235-19.279,7.777-25.523,1.811,14.871,3.622,29.743,5.433,44.614-4.406-1.296-8.811-2.591-13.217-3.886,0-1.289-.002-2.578-.002-3.867Z" style="fill: #5e6cf9;"/>
      <path d="m875.398,550.901c-10.916-.377-9.235-8.44-9.305-15.356-.1-9.884,1.747-18.632,13.202-21.423-1.299,12.26-2.598,24.519-3.897,36.779Z" style="fill: #5f6cf8;"/>
      <path d="m582.422,123.71c-2.195,7.251-7.848,7.961-14.133,7.476-1.933-.003-3.866-.005-5.799-.008-2.554-3.929-5.109-7.858-7.663-11.787,9.198,1.44,18.397,2.879,27.595,4.319Z" style="fill: #5e6dfa;"/>
      <path d="m135.043,363.191c-.673,1.947-1.345,3.894-2.018,5.84.672-1.947,1.345-3.894,2.018-5.84Z" style="fill: #606ff9;"/>
      <path d="m112.432,460.084c-.011,1.862-.021,3.723-.031,5.584.011-1.862.021-3.723.031-5.584Z" style="fill: #6371f9;"/>
      <path d="m873.867,558.751c.488-1.305.976-2.61,1.464-3.915-.488,1.305-.976,2.61-1.464,3.915Z" style="fill: #5f6cf8;"/>
      <path d="m365.25,839.069h-3.867c-2.124-4.858-4.249-9.715-6.323-14.459-3.887,0-7.91,1.21-10.472-.213-10.12-5.621-19.782-12.067-29.614-18.208,2.781-2.336,5.553-4.683,8.347-7.003,2.263-1.88,4.553-3.727,6.831-5.589-2.847-1.607-5.591-3.448-8.564-4.771-5.198-2.313-11.21-3.393-15.654-6.659-6.013-4.419-10.623-10.692-16.275-15.67-9.967-8.778-19.764-17.896-30.602-25.487-7.434-5.207-12.441-10.538-11.762-19.923,11.679-2.415,22.051,2.431,30.139,9.124,6.48,5.363,11.186,12.736,18.774,17.719,8.084,5.309,13.425,15.3,21.834,19.498,13.855,6.916,29.16,10.98,43.959,15.931,11.034,3.692,23.618,4.335,28.607,15.583,9.725-3.522,18.378-6.656,26.006-9.419,4.644,1.944,8.383,4.882,12.062,4.81,15.231-.298,30.444-1.507,46.074-2.404-.473-2.732-.843-4.874-1.214-7.016h15.47c1.289.645,2.578,1.289,3.867,1.934,1.319,1.151,2.639,2.301,3.958,3.452-.03-1.151-.061-2.301-.091-3.452.645-1.289,1.289-2.579,1.934-3.868,3.867-.645,7.735-1.289,11.602-1.934,1.934,1.289,3.867,2.579,5.801,3.868-1.934,3.868-3.867,7.736-5.801,11.605-20.973.071-41.948.027-62.914.44-1.593.031-4.174,3.154-4.455,5.106-.536,3.71.087,7.634.545,11.431.685,5.676-.236,14.254,2.93,16.283,4.649,2.98,12.318,1.671,18.673,1.443,6.094-.219,8.357,3.111,10.257,8.072,1.896,4.953,4.618,9.589,7.605,15.632-6.027,2.827-13.51,2.259-21.531-.542-7.012-2.449-14.401-3.826-21.635-5.634-3.31-.828-8.357-.467-9.662-2.522-4.749-7.482-10.373-7.998-18.024-5.491-4.754,1.557-10.132,2.269-15.088,1.815-4.054-.372-9.303-1.943-11.578-4.877-7.578-9.774-12.173-9.799-20.15,1.396Z" style="fill: #5764f2;"/>
      <path d="m866.077,465.784c0,1.289.002,2.578.002,3.867-8.088,6.759-13.011,19.388-8.361,26.94,7.516,12.206,5.807,25.482,3.765,37.474-3.231,18.97-10.67,37.188-15.551,55.926-3.011,11.558-3.585,23.797-7.083,35.168-3.336,10.846-8.993,20.985-13.727,31.39-2.762,6.071-6.543,11.811-8.413,18.13-4.23,14.297-16.859,22.394-24.23,34.317-.902,1.459-4.008,1.379-5.706,2.566-2.109,1.475-5.303,3.411-5.452,5.347-.91,11.815-7.578,20.395-15.527,27.885-13.844,13.044-29.537,24.347-42.041,38.511-8.175,9.261-16.453,17.735-26.675,24.367-2.218,1.439-5.961,2.91-7.894,2.003-9.879-4.634-15.308,2.683-22.263,6.886-5.199,3.142-11.155,5.666-17.09,6.781-6.134,1.152-10.791,1.667-14.794,8.177-3.525,5.735-10.969,9.417-17.313,12.834-1.815.978-5.825-2.121-8.828-3.35,4.512-2.579,9.024-5.158,13.536-7.736,9.53-1.112,2.869-6.618,2.344-11.542,6.357-1.97,12.642-3.918,18.926-5.865h5.801c8.379-5.802,16.759-11.605,25.138-17.407,3.698.639,7.519,2.129,11.05,1.615,2.334-.34,4.25-3.555,6.354-5.484.645-3.868,1.289-7.736,1.934-11.605,7.09-2.579,14.18-5.158,21.271-7.736,2.494-.694,5.419-.794,7.379-2.222,2.865-2.086,5.205-4.991,7.437-7.809,1.215-1.534,1.747-3.61,2.587-5.442,8.146-9.904,16.028-20.072,27.072-27.078,1.289-1.289,2.578-2.579,3.867-3.868.645-1.289,1.289-2.579,1.934-3.868,5.371-1.075,10.192-2.7,9.668-9.671,3.053-3.336,6.261-6.545,9.117-10.042,2.94-3.599,5.538-7.477,8.286-11.234,1.289-1.289,2.578-2.579,3.867-3.868,6.548.103,9.771-3.121,9.668-9.671v-5.802c2.578-1.934,5.157-3.868,7.735-5.802.645-3.868,1.289-7.736,1.934-11.605,1.934-1.934,3.867-3.868,5.801-5.802.645-3.224,1.289-6.447,1.934-9.671.645-1.934,1.289-3.868,1.934-5.802,1.289-2.579,2.578-5.158,3.867-7.736,2.573-4.224,5.022-8.53,7.749-12.651,4.173-6.307,2.233-10.608-5.816-12.492,1.934-6.447,3.867-12.894,5.801-19.341,5.688.688,9.386-1.523,9.472-7.505.096-6.663-5.068-5.956-9.472-6.034v-29.012h5.801c.002,2.503-.637,5.236.155,7.457,1.224,3.43,3.427,6.511,5.215,9.74,1.433-3.154,2.866-6.307,4.298-9.461,6.653-6.271,7.706-27.339,1.934-38.682-.645-11.605-1.289-23.209-1.934-34.814,5.552-4.149,6.982-9.248,4.833-16.008-1.113-3.502-1.146-7.704-.455-11.362,3.164-16.764-10.125-29.683-10.35-45.595-.003-.185-1.15-.355-1.762-.531-1.289-5.158-2.578-10.315-3.867-15.473,2.767-6.528,1.223-11.208-5.801-13.539v-9.671c1.289-1.289,2.578-2.579,3.867-3.868,1.934,4.846,4.243,9.582,5.719,14.564,2.512,8.479,4.204,17.203,6.79,25.657,2.742,8.965,7.047,17.543,8.94,26.65,1.588,7.644.162,15.866,1.074,23.715.624,5.367,2.972,10.534,4.549,15.791Z" style="fill: #5864f2;"/>
      <path d="m365.25,839.069c7.977-11.195,12.572-11.17,20.15-1.396,2.276,2.935,7.524,4.505,11.578,4.877,4.956.455,10.334-.257,15.088-1.815,7.652-2.507,13.275-1.99,18.024,5.491,1.304,2.055,6.352,1.694,9.662,2.522,7.233,1.809,14.622,3.185,21.635,5.634,8.021,2.802,15.505,3.37,21.531.542-2.987-6.043-5.709-10.68-7.605-15.632-1.899-4.961-4.162-8.291-10.257-8.072-6.355.229-14.024,1.538-18.673-1.443-3.167-2.03-2.245-10.607-2.93-16.283-.458-3.797-1.081-7.72-.545-11.431.282-1.952,2.862-5.074,4.455-5.106,20.966-.413,41.941-.37,62.914-.44,1.934.645,3.867,1.289,5.801,1.934,2.334,3.3,3.951,7.927,7.137,9.649,9.356,5.055,7.949,10.723,2.531,17.429v3.868c-2.053,4.077-4.107,8.154-6.16,12.232l-1.117-.477c-1.754,4.725-3.507,9.45-5.992,16.146,3.487-.297,6.877.31,9.241-.973,4.856-2.637,9.163-6.287,13.696-9.52,5.156-.645,10.313-1.289,15.47-1.934h23.204c6.446-1.934,12.891-3.868,19.337-5.802,3.223.645,6.446,1.289,9.668,1.934-11.807,11.426-27.12,7.896-41.19,9.633-6.009.742-12.142.85-18.021,2.143-3.776.831-7.932,2.545-10.619,5.185-5.93,5.827-12.525,7.598-20.242,5.529-10.767-2.887-21.326-4.059-32.78-3.717-20.512.611-41.74,1.481-60.711-9.593-.989-.577-2.448-.752-3.606-.575-18.215,2.791-34.249-4.803-50.675-10.539Zm154.814-21.274c-5.462-12.984-13.026-18.709-25.506-17.511-11.767,1.13-23.649,1.085-35.399,2.327-2.441.258-4.524,3.902-6.772,5.986,2.265,2.366,4.207,5.289,6.928,6.867,1.414.82,4.194-.798,6.377-1.209,10.218-1.925,18.937,2.394,23.107,11.064.979,2.037,2.924,3.609,4.425,5.395,1.833-1.889,3.476-4.026,5.542-5.612,3.414-2.622,6.853-5.49,10.758-7.098,2.652-1.092,6.118-.209,10.541-.209Zm-28.152,27.144c.087.96.173,1.92.26,2.88h13.14c-.015-.96-.031-1.92-.046-2.88h-13.353Zm-18.962-19.407c.621-.751,1.569-1.414,1.498-1.939-.082-.603-1.331-1.643-1.611-1.511-.866.407-1.513,1.282-2.245,1.975.703.44,1.407.88,2.358,1.475Z" style="fill: #5864f2;"/>
      <path d="m247.295,721.088c-.679,9.385,4.328,14.716,11.762,19.923,10.838,7.591,20.635,16.709,30.602,25.487,5.652,4.978,10.262,11.251,16.275,15.67,4.444,3.266,10.456,4.346,15.654,6.659,2.974,1.323,5.717,3.163,8.564,4.771-2.278,1.862-4.568,3.709-6.831,5.589-2.794,2.32-5.566,4.667-8.347,7.003-1.934-1.934-3.867-3.868-5.801-5.802v-7.008c-1.248.189-2.496.377-3.744.566.604,2.147,1.207,4.295,1.811,6.442-15.569,2.406-23.762-6.255-29.005-19.341,2.412-4.717,3.612-9.57-2.774-11.628-1.703-.549-4.565,2.497-6.895,3.892h-7.735c.623-7.908-1.991-15.013-8.081-23.115-1.053-1.401-.582-4.121-1.759-5.217-1.755-1.635-4.314-3.154-6.598-3.259-2.211-.102-4.508,1.644-6.767,2.579-6.446-5.802-12.891-11.605-19.337-17.407h10.727c.281-.971.562-1.942.843-2.913-5.79-4.187-11.58-8.373-17.37-12.56-7.006-4.861-14.079-9.629-20.974-14.642-2.034-1.479-4.172-3.366-5.205-5.563-2.683-5.707-4.779-11.69-7.4-18.297,2.304-2.173,5.375-5.07,10.859-10.243-8.81-1.305-14.742-2.183-21.008-3.111-2.883-9.732,8.002-3.728,9.992-7.9-7.246-6.629-14.287-13.254-21.555-19.62-2.553-2.236-5.664-3.835-8.521-5.725v-7.736c1.288-2.15,3.446-4.196,3.716-6.468,1.363-11.422-1.121-21.833-9.518-30.281,2.578-.645,5.157-1.289,7.735-1.934,3.867,1.289,7.735,2.579,11.602,3.868,8.279,5.361,5.153,13.833,5.801,21.275-3.12,2.22-6.24,4.441-9.359,6.661,1.054.955,2.814,2.885,3.051,2.713,2.251-1.631,4.242-3.62,6.309-5.506,3.223,3.868,6.446,7.736,9.668,11.605.645,1.289,1.289,2.579,1.934,3.868,2.578,7.736,5.157,15.473,7.735,23.209,1.934,6.447,3.867,12.894,5.801,19.341-1.125,2.087-2.251,4.174-3.376,6.26,3.059,1.137,6.118,2.273,9.177,3.41,2.578,1.289,5.157,2.579,7.735,3.868,2.578,5.158,5.157,10.315,7.735,15.473,1.289.645,2.578,1.289,3.867,1.934,1.934,2.579,3.867,5.158,5.801,7.736h1.934c1.934,1.934,3.867,3.868,5.801,5.802h1.934c3.223,3.224,6.446,6.447,9.668,9.671h3.867Zm47.811,57.613c-.902.344-1.805.689-2.707,1.033.248,2.355-.309,5.416.966,6.869,1.326,1.511,4.423,1.466,6.745,2.102.395-.707.789-1.413,1.184-2.119-2.063-2.628-4.125-5.256-6.188-7.884Zm-132.873-155.575c-.732-.66-1.34-1.626-1.909-1.604-.57.022-1.669,1.279-1.545,1.562.384.877,1.238,1.549,1.909,2.301.466-.68.931-1.361,1.545-2.258Z" style="fill: #5764f2;"/>
      <path d="m603.095,841.003c-3.223-.645-6.446-1.289-9.668-1.934-1.5-.99-3.507-1.648-4.407-3.029-3.224-4.945-7.553-9.83-8.685-15.311-1.381-6.682,5.409-3.854,8.868-5.006,4.735-1.577,9.272-3.749,13.893-5.666.645-.645,1.289-1.289,1.934-1.934,3.781-.001,7.562-.045,11.342.005,6.564.088,10.03-2.949,9.928-9.676,2.483-.902,5.355-1.29,7.365-2.814,4.027-3.054,7.066-8.572,11.431-9.794,11.819-3.309,22.34-10.364,35.345-10.715,6.158-.166,13.306-3.663,18.088-7.843,19.872-17.371,39.095-35.491,58.387-53.517,8.471-7.916,20.912-11.243,26.251-22.774.208-.45,1.115-.576,1.696-.853,2.578,1.289,5.156,2.579,7.735,3.868-2.748,3.756-5.346,7.635-8.286,11.234-2.857,3.497-6.064,6.706-9.117,10.042-3.223,3.224-6.446,6.447-9.669,9.671-.645,1.289-1.289,2.579-1.934,3.868-1.289,1.289-2.578,2.579-3.867,3.868-11.043,7.006-18.926,17.174-27.072,27.078-9.588.743-15.39,5.901-17.403,15.473-7.09,2.579-14.18,5.158-21.271,7.736-6.598,6.366-6.831,7.766-1.934,11.605-2.103,1.928-4.019,5.144-6.354,5.484-3.53.514-7.352-.977-11.05-1.615-1.379-.515-3.073-1.824-4.086-1.42-7.908,3.149-15.685,6.626-23.905,10.176.262.446,1.27,1.678,1.745,3.089.597,1.777.758,3.701,1.108,5.562h-5.801c-3.769-1.198-8.101-4.198-11.194-3.232-7.138,2.23-13.676,6.384-19.189,9.127,2.725,3.442,5.919,7.477,9.112,11.512-4.512,2.579-9.024,5.158-13.536,7.736h-5.801Z" style="fill: #5764f2;"/>
      <path d="m185.41,289.765c0-.64,0-1.28.003-1.92,5.302-2.901,12.471-4.541,15.475-8.993,4.7-6.965,6.584-15.833,9.66-23.894,0,0-.001,0-.001,0,1.292.002,2.584.005,3.875.007.577,1.678,1.154,3.355,1.732,5.033,4.041-2.47,8.083-4.939,12.124-7.409-.328-.783-.655-1.567-.983-2.35-1.713-.359-3.425-.718-5.138-1.077,1.574-1.762,3-3.69,4.749-5.258,6.741-6.046,13.584-11.977,20.39-17.951,3.223,1.289,6.446,2.579,9.668,3.868,1.615,2.005,3.23,4.011,3.811,4.731-2.134,4.709-3.939,8.693-5.744,12.676-8.718.442-11.697,7.444-15.47,13.539-2.578,1.934-5.156,3.868-7.735,5.802-6.399,9.878-8.358,22.731-20.629,28.754-3.559,1.747-5.626,6.535-8.377,9.929-.645,1.934-1.289,3.868-1.934,5.802-5.987,10.353-12.612,20.442-13.536,32.88-2.578.645-5.157,1.289-7.735,1.934-1.352-3.914-2.704-7.827-4.056-11.741-1.562.174-3.125.349-4.687.523-.953,7.608-1.906,15.215-2.859,22.823-1.289,1.934-2.578,3.868-3.867,5.802-8.269,2.867-11.28,9.24-11.602,17.407.645,7.092,1.289,14.184,1.934,21.275,2.578,2.579,5.157,5.158,7.735,7.736v3.868c-3.867,1.934-7.735,3.868-11.602,5.802-1.066-3.788-2.133-7.577-3.257-11.572-5.266,2.148-9.706,3.959-14.146,5.77,8.653-19.424,17.466-38.78,25.818-58.332,1.559-3.649.082-8.818,2.053-12.029,7.312-11.917,7.126-28.176,22.117-36.096,2.964-1.566,1.589-11.348,2.214-17.341Z" style="fill: #5864f2;"/>
      <path d="m260.831,773.309h7.735c3.223,2.579,6.446,5.158,9.668,7.736,5.243,13.086,13.436,21.747,29.005,19.341h1.934c1.934,1.934,3.867,3.868,5.801,5.802,9.832,6.14,19.494,12.587,29.614,18.208,2.561,1.423,6.584.213,10.472.213,2.075,4.744,4.199,9.601,6.323,14.459-14.805-8.031-29.502-16.271-44.46-24.008-7.853-4.062-16.329-6.914-24.198-10.948-4.421-2.266-8.213-5.78-12.225-8.817-2.787-2.109-5.245-5.862-8.227-6.296-13.728-2.002-18.493-12.958-25.451-22.535-6.443-8.867-14.603-16.68-22.869-23.98-10.96-9.677-22.937-18.24-27.368-33.23-.331-1.12-1.539-1.977-2.325-2.968-6.645-8.376-14.646-16.023-19.637-25.29-9.553-17.74-17.394-36.402-25.945-54.681,2.856,1.89,5.967,3.489,8.521,5.725,7.268,6.366,14.309,12.991,21.555,19.62-1.99,4.173-12.875-1.831-9.992,7.9,6.265.928,12.198,1.806,21.008,3.111-5.484,5.173-8.555,8.07-10.859,10.243,2.621,6.607,4.717,12.59,7.4,18.297,1.033,2.197,3.171,4.085,5.205,5.563,6.895,5.013,13.969,9.781,20.974,14.642,1.934,5.158,3.867,10.315,5.801,15.473,6.446,5.802,12.891,11.605,19.337,17.407,7.735,9.671,15.47,19.341,23.204,29.012Z" style="fill: #5864f2;"/>
      <path d="m133.207,521.874v-11.605c.308-8.395,2.12-17.094.498-25.098-1.595-7.868-2.708-14.498,1.376-21.983,1.846-3.384,1.759-8.802.53-12.653-1.769-5.541-5.379-10.494-8.204-15.697,1.934-5.158,3.867-10.315,5.801-15.473,3.493-1.067,6.986-2.135,11.14-3.404.181,3.602.322,6.404.463,9.206v19.341c-1.289,9.671-2.578,19.341-3.867,29.012,0,3.846.614,7.813-.115,11.516-2.218,11.267,7.42,22.373.286,33.737-.59.939,1.121,3.322,1.763,5.035-.645,7.092-1.289,14.184-1.934,21.275-1.934-1.934-3.867-3.868-5.801-5.802-.645-5.802-1.289-11.605-1.934-17.407Z" style="fill: #5764f2;"/>
      <path d="m142.876,581.831c8.396,8.448,10.88,18.859,9.518,30.281-.271,2.271-2.429,4.318-3.716,6.468-5.157-17.407-10.313-34.814-15.47-52.221,10.18.809,5.71,10.775,9.668,15.473Z" style="fill: #5864f2;"/>
      <path d="m127.406,434.838c2.825,5.204,6.435,10.156,8.204,15.697,1.229,3.851,1.317,9.269-.53,12.653-4.083,7.485-2.97,14.114-1.376,21.983,1.622,8.003-.19,16.703-.498,25.098-.546-.771-1.477-1.495-1.579-2.321-1.472-11.988-3.054-23.97-4.153-35.995-.942-10.307-1.414-20.663-1.815-31.008-.078-2.01,1.13-4.07,1.745-6.107Z" style="fill: #5864f2;"/>
      <path d="m142.876,581.831c-3.959-4.698.511-14.664-9.668-15.473-.645-1.934-1.289-3.868-1.934-5.802.645-2.579,1.289-5.158,1.934-7.736,3.558.874,9.299.723,10.276,2.807,3.29,7.017,4.884,14.829,7.127,22.336v1.934c-2.578.645-5.157,1.289-7.735,1.934Z" style="fill: #5764f2;"/>
      <path d="m133.207,552.819c-.645,2.579-1.289,5.158-1.934,7.736-7.011-13.277-5.374-26.121,1.934-38.682.645,5.802,1.289,11.605,1.934,17.407q-6.198,2.186-1.934,13.539Z" style="fill: #5864f2;"/>
      <path d="m144.809,425.168c-.141-2.802-.282-5.604-.463-9.206-4.153,1.269-7.646,2.336-11.14,3.404v-5.802c4.44-1.811,8.881-3.622,14.146-5.77,1.124,3.995,2.191,7.783,3.257,11.572-1.934,1.934-3.867,3.868-5.801,5.802Z" style="fill: #5764f2;"/>
      <path d="m711.376,189.205c1.938,1.93,3.875,3.859,5.813,5.789,2.578,1.293,5.155,2.586,7.733,3.879.644.644,1.288,1.289,1.931,1.934,3.445,10.738,12.169,16.197,21.271,21.278,1.288.645,2.577,1.29,3.865,1.935v7.736c-2.881-.509-5.763-1.019-8.644-1.528-.641.979-1.282,1.959-1.923,2.938,6.745,5.332,13.49,10.665,20.236,15.997-.267,5.983-4.295,13.377,5.801,15.473,1.289,1.289,2.578,2.579,3.867,3.868,1.289.645,2.578,1.289,3.867,1.934,3.223-2.579,6.446-5.158,9.668-7.736,1.293-.002,2.586-.003,3.879-.005.642.644,1.285,1.288,1.927,1.932-.001,2.581-.003,5.163-.004,7.744-.645,2.579-1.289,5.158-1.934,7.736v9.671c-4.302,5.284-8.194,4.722-12.636-.2-4.398-4.873-10.015-8.704-14.081-13.802-4.448-5.578-7.732-12.084-11.524-18.186-.337-1.52-3.308-.434-5.157-1.431-12.341-6.653-24.972-13.076-31.838-26.436-1.424-2.77-3.144-5.574-5.356-7.713-4.561-4.411-9.546-8.385-15.218-13.282,7.229-3.947,7.547-7.341,2.641-11.238-3.249-2.581-6.22-5.512-9.316-8.287,2.792-1.892,5.392-4.847,8.426-5.394,3.435-.619,7.26.921,10.915,1.522,0,0,0-.001,0-.001,1.931,1.291,3.861,2.582,5.792,3.873Zm12.179,29.66c-.58,1.019-1.16,2.038-1.74,3.057,2.92,1.88,5.77,3.902,8.862,5.436.337.167,2.068-2.478,3.153-3.819-3.425-1.558-6.85-3.116-10.644-.526-.992-14.019-3.93-16.601-17.6-17.247,1.059,10.341,10.66,10.306,17.968,13.099Z" style="fill: #5764f2;"/>
      <path d="m705.584,185.333c-3.655-.601-7.48-2.141-10.915-1.522-3.034.547-5.634,3.502-8.426,5.394-7.14-.378-8.275-5.796-9.668-11.22-.668-2.599-2.047-5.015-3.104-7.514-2.421,1.423-4.843,2.846-7.327,4.305-2.511-1.514-5.342-4.713-7.878-4.494-12.032,1.038-13.441-8.115-16.498-15.891,0,0,.012-.012.012-.013,16.418.233,29.824,8.075,42.849,16.919,6.955,4.723,13.968,9.36,20.955,14.036Z" style="fill: #5865f2;"/>
      <path d="m815.803,301.383c1.288,1.935,2.577,3.869,3.865,5.804,1.025,11.002,1.166,22.281,9.668,30.946h-5.801c-7.787-1.536-8.566-7.077-7.735-13.539-.81-6.162-1.619-12.324-2.541-19.341h-12.929c-.645-1.934-1.289-3.868-1.934-5.802-3.543-4.44-5.573-8.754-1.104-14.108,1.326-1.589.788-4.735,1.104-7.168.647-.001,1.294-.002,1.941-.004,1.289,1.934,2.578,3.868,3.867,5.802-2.893,11.169.719,16.591,11.598,17.409Z" style="fill: #5864f2;"/>
      <path d="m829.337,338.132c-8.503-8.665-8.644-19.944-9.668-30.946,5.16,10.314,10.321,20.628,15.481,30.942-.649.001-1.297.003-1.945.004h-3.867Z" style="fill: #5865f2;"/>
      <path d="m780.985,251.098c.649,1.289,1.297,2.577,1.946,3.866,0,0-.005.004-.005.004-4.511.644-9.022,1.288-13.533,1.932-2.578-2.579-5.157-5.158-7.735-7.736v-7.736c1.935-.002,3.871-.003,5.806-.005,0,0,0,0,0,0,1.291,1.289,2.583,2.579,3.875,3.868,1.285.645,2.57,1.289,3.856,1.934,1.931,1.292,3.861,2.583,5.792,3.875Z" style="fill: #5764f2;"/>
      <path d="m748.124,222.084c-9.101-5.081-17.825-10.54-21.271-21.278,7.09,7.093,14.18,14.185,21.271,21.278Z" style="fill: #5865f2;"/>
      <path d="m815.803,301.383c-10.879-.819-14.49-6.24-11.598-17.409,3.866,5.803,7.732,11.606,11.598,17.409Z" style="fill: #5865f2;"/>
      <path d="m767.463,241.422c-1.935.002-3.871.003-5.806.005-1.289-1.934-2.578-3.868-3.867-5.802-1.934-1.289-3.867-2.579-5.801-3.868v-7.736c5.158,5.801,10.316,11.602,15.474,17.402Z" style="fill: #5865f2;"/>
      <path d="m800.338,278.171c-.647.001-1.294.002-1.941.004h-3.867c-1.289-1.934-2.578-3.868-3.867-5.802.001-2.581.003-5.162.004-7.744,3.224,4.514,6.448,9.028,9.671,13.543Z" style="fill: #5865f2;"/>
      <path d="m833.204,338.132c.648-.001,1.297-.003,1.945-.004,1.935,4.511,3.87,9.023,5.805,13.534-.65.648-1.299,1.295-1.949,1.943h-1.934c-1.289-5.158-2.578-10.315-3.867-15.473Z" style="fill: #5864f2;"/>
      <path d="m788.74,262.697c-1.293.002-2.586.003-3.879.005-.645-2.578-1.291-5.156-1.936-7.734,0,0,.005-.004.005-.004,1.937,2.578,3.873,5.155,5.81,7.733Z" style="fill: #5865f2;"/>
      <path d="m724.922,198.873c-2.578-1.293-5.155-2.586-7.733-3.879,2.578,1.293,5.155,2.586,7.733,3.879Z" style="fill: #5865f2;"/>
      <path d="m711.376,189.205c-1.931-1.291-3.862-2.582-5.792-3.873,1.931,1.291,3.861,2.582,5.792,3.873Z" style="fill: #5865f2;"/>
      <path d="m780.985,251.098c-1.931-1.292-3.861-2.583-5.792-3.875,1.931,1.292,3.861,2.583,5.792,3.875Z" style="fill: #5865f2;"/>
      <path d="m771.338,245.289c-1.292-1.289-2.583-2.578-3.875-3.868,1.292,1.289,2.583,2.579,3.875,3.868Z" style="fill: #5865f2;"/>
      <path d="m256.963,229.822c-3.223-1.289-6.446-2.579-9.668-3.868,1.907-3.594,2.929-8.39,5.882-10.563,10.085-7.422,19.717-16.363,32.312-15.183,1.658-5.67,3.003-10.267,4.348-14.865,2.574-1.939,5.147-3.877,7.721-5.816,7.542-.767,14.957-5.615,22.794-.337.829.558,4.308-1.771,5.771-3.447,2.231-2.555,3.36-6.113,5.7-8.522,4.417-4.549,9.364-8.583,14.09-12.831.641-.004,1.282-.006,1.923-.005,4.516-1.287,9.031-2.575,13.547-3.862,2.579-1.293,5.157-2.587,7.736-3.88,2.573-1.293,5.147-2.585,7.721-3.877,1.938.652,3.876,1.303,5.814,1.955,2.313,15.86-2.827,19.595-20.81,14.749-1.333,3.366-2.678,6.764-3.392,8.568-4.854,1.047-8.278,1.669-11.578,2.692-.302.094-.329,3.664.398,4.08,6.79,3.888,3.622,9.285,2.509,14.395-7.359,2.563-14.653,5.34-22.092,7.646-15.572,4.827-28.646,13.476-39.786,25.234-.845-2-2.174-3.942-2.418-6.013-.349-2.964.095-6.021.2-9.039-3.219,1.687-7.049,2.751-9.538,5.185-6.215,6.077-7.151,17.802-19.182,17.603Z" style="fill: #5764f2;"/>
      <path d="m289.836,185.343c-1.345,4.597-2.689,9.194-4.348,14.865-12.595-1.18-22.227,7.761-32.312,15.183-2.952,2.173-3.975,6.969-5.882,10.563-6.805,5.974-13.649,11.905-20.39,17.951-1.748,1.568-3.174,3.496-4.749,5.258-2.578,1.934-5.157,3.868-7.735,5.802-1.292-.002-2.584-.005-3.875-.007,1.429-3.035,2.24-6.629,4.392-9.011,10.242-11.332,20.773-22.409,31.391-33.393,2.163-2.238,5.155-3.669,7.748-5.497,8.243-5.81,16.336-11.849,24.788-17.337,3.239-2.103,7.289-2.956,10.97-4.378Z" style="fill: #5865f2;"/>
      <path d="m345.913,154.39c-4.727,4.248-9.673,8.283-14.09,12.831-2.34,2.41-3.469,5.967-5.7,8.522-1.464,1.676-4.942,4.005-5.771,3.447-7.838-5.278-15.252-.43-22.794.337,6.599-4.372,12.867-9.395,19.878-12.955,9.186-4.665,18.958-8.175,28.478-12.182Z" style="fill: #5865f2;"/>
      <path d="m210.548,254.957c-3.077,8.062-4.96,16.929-9.66,23.894-3.004,4.452-10.173,6.092-15.475,8.993.353-1.862.154-4.114,1.149-5.522,5.67-8.022,11.478-15.96,17.593-23.646,1.43-1.798,4.226-2.509,6.394-3.72Z" style="fill: #5865f2;"/>
      <path d="m382.654,144.72c-1.938-.652-3.876-1.303-5.814-1.955,4.618-8.063,12.53-5.095,19.351-5.78,0,1.289,0,2.578-.001,3.866-4.512,1.289-9.024,2.579-13.536,3.868Z" style="fill: #5865f3;"/>
      <path d="m361.383,150.523c-4.516,1.287-9.031,2.575-13.547,3.862,5.16-2.577,10.32-5.154,15.481-7.73-.645,1.289-1.289,2.579-1.934,3.868Z" style="fill: #5865f3;"/>
      <path d="m361.383,150.523c.645-1.289,1.289-2.579,1.934-3.868,1.934-.004,3.868-.008,5.802-.011-2.579,1.293-5.157,2.586-7.736,3.88Z" style="fill: #5764f2;"/>
      <path d="m382.654,144.72c4.512-1.289,9.024-2.579,13.536-3.868,1.073.572,2.352,1.852,3.188,1.609,9.997-2.915,20.029-5.77,29.846-9.224,8.756-3.081,16.375-4.268,19.656,7.567,2.643-1.057,5.403-1.28,6.546-2.757,9.001-11.632,22.228-9.33,34.272-10.675,12.333-1.377,24.71-2.84,37.086-3.031,3.389-.052,8.021,3.592,10.051,6.819,5.84,9.281,7.637,9.854,17.038,3.288,2.442-1.706,5.721-2.213,8.616-3.271,1.933.002,3.866.005,5.799.008,3.67,4.391,10.954,6.36,9.505,14.183,3.578.099,8.344,1.72,10.518.021,7.71-6.022,15.567-5.51,19.413,3.321,2.695,6.188,5.425,7.142,10.615,3.185,8.52-6.496,15.558,2.161,23.428,2.494,3.057,7.776,4.466,16.929,16.498,15.891,2.536-.219,5.366,2.98,7.878,4.494,2.484-1.459,4.905-2.882,7.327-4.305,1.057,2.499,2.437,4.915,3.104,7.514,1.393,5.423,2.527,10.842,9.668,11.22,3.096,2.775,6.067,5.706,9.316,8.287,4.906,3.897,4.588,7.292-2.641,11.238,5.672,4.897,10.657,8.87,15.218,13.282,2.212,2.139,3.932,4.943,5.356,7.713,6.867,13.36,19.498,19.784,31.838,26.436,1.849.997,4.82-.089,5.157,1.431,3.791,6.102,7.076,12.608,11.524,18.186,4.066,5.098,9.682,8.929,14.081,13.802,4.442,4.921,8.334,5.484,12.636.2.645,1.934,1.289,3.868,1.934,5.802-10.679,1.26-9.713,10.285-11.602,17.407-6.651-8.622-13.077-17.432-20.049-25.786-3.372-4.04-7.418-7.744-11.776-10.685-7.851-5.298-15.946-10.332-24.339-14.708-13.482-7.029-22.661-19.411-37.403-25.767-18.559-8.002-34.712-21.591-51.896-32.78-2.111-1.375-3.994-3.344-6.293-4.145-9.611-3.345-19.359-6.295-29.023-9.492-13.866-4.587-27.412-11.571-41.62-13.362-21.533-2.715-44.899-6.719-64.897-1.045-17.82,5.056-31.871,3.745-48.086-1.108-8.664-2.593-18.401-2.24-27.626-2.028-4.274.098-8.521,2.944-12.707,4.718-3.347,1.418-6.439,3.778-9.9,4.507-5.267,1.109-10.833.761-16.133,1.765-9.233,1.749-18.36,4.058-27.532,6.132,1.113-5.111,4.281-10.507-2.509-14.395-.727-.416-.699-3.987-.398-4.08,3.3-1.023,6.724-1.645,11.578-2.692.714-1.804,2.059-5.202,3.392-8.568,17.983,4.846,23.122,1.112,20.81-14.749Zm90.324-7.574c-.297,1.042-.594,2.083-.89,3.125,1.651.474,3.289,1.177,4.96,1.262.418.022.939-1.938,1.412-2.987-1.827-.467-3.655-.933-5.482-1.4Zm68.441,8.666c-1.767-1.085-2.765-2.15-3.752-2.141-.635.006-1.903,1.769-1.724,2.427.239.877,1.556,1.886,2.51,2.001.712.085,1.582-1.158,2.966-2.286Zm145.315,63.965c.229-.538.754-1.193.602-1.582-.15-.383-.987-.497-1.522-.728-.23.536-.758,1.192-.605,1.576.154.386.986.502,1.525.734Z" style="fill: #5764f2;"/>
      <path d="m837.072,353.605h1.934v5.802c-1.289,1.289-2.578,2.579-3.867,3.868-1.934,2.579-3.867,5.158-5.801,7.736-2.829-1.895-5.659-3.79-8.594-5.757,3.96-3.586,6.277-5.684,8.594-7.782,2.578-1.289,5.156-2.579,7.735-3.868Z" style="fill: #5764f2;"/>
      <path d="m349.781,189.205c9.172-2.074,18.299-4.383,27.532-6.132,5.3-1.004,10.865-.656,16.133-1.765,3.461-.729,6.553-3.088,9.9-4.507,4.186-1.774,8.434-4.619,12.707-4.718,9.225-.212,18.962-.565,27.626,2.028,16.216,4.853,30.267,6.163,48.086,1.108,19.998-5.674,43.365-1.67,64.897,1.045,14.208,1.791,27.754,8.775,41.62,13.362,9.664,3.197,19.412,6.147,29.023,9.492,2.299.8,4.182,2.77,6.293,4.145,17.184,11.19,33.336,24.779,51.896,32.78,14.743,6.356,23.921,18.738,37.403,25.767,8.393,4.376,16.488,9.41,24.339,14.708,4.358,2.941,8.404,6.645,11.776,10.685,6.972,8.354,13.398,17.164,20.049,25.786,3.867,4.513,7.735,9.026,11.602,13.539,7.207,17.653,17.405,34.375,16.706,54.491-.061,1.77,1.332,3.559,1.882,5.389,1.585,5.279,4.151,10.531,4.41,15.887.689,14.285.335,28.269,5.584,42.326,5.242,14.039,7.066,29.355,10.384,44.113,2.484,11.046,4.962,22.093,7.443,33.14v61.892c-1.934,6.447-3.867,12.894-5.801,19.341-3.223,7.092-6.446,14.184-9.668,21.275-.645,1.289-1.289,2.579-1.934,3.868-1.289,1.934-2.578,3.868-3.867,5.802-2.578,3.224-5.157,6.447-7.735,9.671-.659.682-1.474,1.269-1.952,2.06-4.324,7.154-7.264,15.751-13.114,21.267-19.926,18.786-41.056,36.288-61.364,54.68-12.885,11.669-25.128,24.047-37.659,36.107-1.289,1.289-2.578,2.579-3.867,3.868-5.628-.158-11.262-.208-16.883-.497-10.26-.527-18.797,4.723-28.118,7.479-15.65,4.627-32.228,6.88-48.572,8.217-26.754,2.189-53.633,2.842-80.46,4.142h-5.801c-3.867.645-7.735,1.289-11.602,1.934-3.223.645-6.446,1.289-9.668,1.934h-15.47c-11.03.622-22.057,1.294-33.091,1.848-7.995.402-16.08,1.05-20.748-7.8-.548-1.04-2.742-1.211-4.172-1.785-2.413-1.289-4.744-3.457-7.256-3.691-5.915-.55-11.916-.177-17.882-.178-5.801-1.934-11.602-3.868-17.403-5.802-1.934-1.289-3.867-2.579-5.801-3.868-5.157-1.289-10.313-2.579-15.47-3.868-2.578-.645-5.157-1.289-7.735-1.934-7.09-3.868-14.18-7.736-21.271-11.605-2.578-1.934-5.157-3.868-7.735-5.802-11.882-12.148-22.388-25.915-38.674-32.88-2.515-1.631-4.843-4.085-7.587-4.707-4.417-1.001-9.108-.793-13.684-1.095-3.223-.645-6.446-1.289-9.668-1.934.213-8.121-5.467-9.169-11.602-9.671-1.934-2.579-3.867-5.158-5.801-7.736-2.578-3.224-5.156-6.447-7.735-9.671-1.934-3.868-3.867-7.736-5.801-11.605-1.934-3.868-3.867-7.736-5.801-11.605-3.514-7.009-7.396-13.865-10.419-21.08-2.189-5.226-3.701-10.428-10.852-9.866-1.818-13.507-4.422-26.968-5.208-40.535-.638-11.006-2.073-23.531,2.276-32.845,4.885-10.462,5.258-16.05-4.803-21.392v-42.551c2.246-3.451,4.875-6.718,6.635-10.402,1.96-4.104,4.965-8.917,4.26-12.834-1.453-8.068-4.469-14.822-2.014-24.23,3.083-11.809.771-25.026.787-37.636v-11.605c-.645-4.513-1.289-9.026-1.934-13.539.645-5.158,1.289-10.315,1.934-15.473,1.47-.534,3.136-.785,4.382-1.644,19.802-13.659,30.015-34.75,42.027-54.445,3.223-5.802,6.446-11.605,9.668-17.407,1.934-3.224,3.867-6.447,5.801-9.671v-1.934c2.578-3.868,5.157-7.736,7.735-11.605,2.578-3.224,5.157-6.447,7.735-9.671,2.578-4.513,5.157-9.026,7.735-13.539.645-1.289,1.289-2.579,1.934-3.868,3.867-3.224,7.735-6.447,11.602-9.671,11.14-11.758,24.214-20.407,39.786-25.234,7.439-2.306,14.733-5.083,22.092-7.646Zm181.844,585.143c40.759-2.005,74.903-6.448,108.633-14.275,5.572-1.293,11.381-1.632,17.1-2.219,21.173-2.17,40.763-7.434,56.017-24.001,9.996-10.857,21.027-20.802,31.996-30.71,20.154-18.204,43.049-33.653,55.634-59.121,8.23-16.654,19.131-32.168,25.799-49.37,9.083-23.435,2.668-48.219,1.628-72.434-.37-8.62-.499-17.404-2.299-25.778-4.561-21.219-10.15-42.215-15.009-63.374-1.422-6.192-1.399-12.707-2.69-18.938-3.244-15.651-6.266-31.39-10.512-46.78-3.555-12.883-5.684-27.898-13.781-37.435-18.193-21.426-38.373-41.684-60.245-59.314-20.57-16.581-44.257-29.325-66.739-43.492-30.334-19.114-61.988-34.829-98.493-38.346-12.055-1.161-24.187-2.83-35.918-5.74-15.462-3.836-29.749-3.491-44.964,2.506-8.952,3.528-19.97,2.377-30.051,2.3-8.595-.066-17.269-2.849-25.75-2.238-19.428,1.397-38.894,3.337-58.083,6.597-13.465,2.288-27.374,5.303-39.549,11.178-28.43,13.718-47.249,37.556-62.431,64.681-8.925,15.945-17.408,32.433-28.527,46.788-20.332,26.249-28.756,55.015-27.087,87.989.751,14.837-3.285,29.853-4.062,44.844-1.461,28.194-3.536,56.468-2.752,84.636.844,30.335,4.4,60.614,7.388,90.856.769,7.78,2.88,15.774,6.123,22.871,3.671,8.035,8.997,15.392,14.166,22.643,7.305,10.248,14.93,21.269,28.421,22.935,18.648,2.303,33.143,10.828,45.647,24.302,14.718,15.86,30.98,28.576,52.462,35.908,26.99,9.211,53.792,16.225,82.374,15.717,8.697-.155,17.45-.57,26.09.162,25.182,2.134,50.319,4.787,69.467,6.652Z" style="fill: #5764f2;"/>
      <path d="m415.526,777.177c1.431.574,3.624.745,4.172,1.785,4.667,8.85,12.753,8.201,20.748,7.8,11.033-.554,22.061-1.227,33.091-1.848.371,2.142.741,4.284,1.214,7.016-15.631.898-30.844,2.106-46.074,2.404-3.68.072-7.418-2.866-12.062-4.81-7.628,2.763-16.282,5.897-26.006,9.419-4.989-11.248-17.574-11.891-28.607-15.583-14.799-4.951-30.104-9.015-43.959-15.931-8.409-4.198-13.75-14.189-21.834-19.498-7.588-4.983-12.294-12.357-18.774-17.719-8.089-6.693-18.461-11.539-30.139-9.124h-3.867c-3.223-3.224-6.446-6.447-9.668-9.671h-1.934c-1.934-1.934-3.867-3.868-5.801-5.802h-1.934q-.304-8.558-5.801-7.736c-1.289-.645-2.578-1.289-3.867-1.934,3.722-8.308-.893-12.447-7.735-15.473-2.578-1.289-5.157-2.579-7.735-3.868-.645-3.224-1.289-6.447-1.934-9.671-3.223-6.447-6.446-12.894-9.668-19.341-2.578-7.736-5.157-15.473-7.735-23.209,1.289-1.289,2.578-2.579,3.867-3.868,1.289-.645,2.578-1.289,3.867-1.934,7.15-.562,8.663,4.641,10.852,9.866,3.023,7.215,6.905,14.07,10.419,21.08-4.865,7.988-4.043,9.633,5.801,11.605,1.934,3.868,3.867,7.736,5.801,11.605-.341,5.815.823,10.626,7.735,11.605,1.289,2.579,2.578,5.158,3.867,7.736-.152,10.743,7.997,6.956,13.536,7.736,3.223.645,6.446,1.289,9.668,1.934,5.201,8.863,13.94,4.749,21.271,5.802,16.286,6.965,26.792,20.732,38.674,32.88,2.578,1.934,5.157,3.868,7.735,5.802,7.09,3.868,14.18,7.736,21.271,11.605,2.578.645,5.157,1.289,7.735,1.934,5.157,1.289,10.313,2.579,15.47,3.868,1.934,1.289,3.867,2.579,5.801,3.868,5.801,1.934,11.602,3.868,17.403,5.802,2.704,1.796,5.309,4.897,8.133,5.112,5.604.427,11.329-.737,17.005-1.244Zm-122.525-44.975c-.538-.229-1.192-.754-1.581-.602-.383.15-.496.987-.728,1.523.536.23,1.191.758,1.576.605.386-.154.502-.986.734-1.526Zm-100.377-105.147c-.234.537-.768,1.193-.616,1.577.154.387.989.504,1.525.739.234-.535.77-1.192.618-1.571-.156-.39-.986-.509-1.527-.744Z" style="fill: #5764f2;"/>
      <path d="m693.978,757.836c12.531-12.06,24.774-24.438,37.659-36.107,20.308-18.392,41.437-35.893,61.364-54.68,5.85-5.516,8.789-14.113,13.114-21.267.478-.791,1.293-1.378,1.952-2.06,2.538,1.431,5.082,2.852,7.612,4.297,1.983,1.132,3.95,2.292,5.924,3.44-1.934,1.934-3.867,3.868-5.801,5.802-8.605-2.396-9.449-1.383-9.668,11.605-2.37,2.378-4.74,4.755-7.11,7.133,2.37,1.491,4.74,2.981,7.11,4.472.103,6.55-3.12,9.773-9.668,9.671v-1.934c-.547-2.294-1.094-4.587-1.641-6.881-1.387,1.004-2.774,2.008-4.16,3.013-1.934,1.934-3.867,3.868-5.801,5.802-.581.277-1.488.403-1.696.853-5.339,11.531-17.779,14.858-26.251,22.774-19.292,18.026-38.514,36.146-58.387,53.517-4.783,4.181-11.93,7.677-18.088,7.843-13.006.351-23.527,7.406-35.345,10.715-4.365,1.222-7.404,6.74-11.431,9.794-2.01,1.525-4.883,1.912-7.365,2.814-1.714-1.845-3.615-5.403-5.111-5.24-6.576.715-13.035,2.505-19.357,3.867,1.337,4.62,2.267,7.832,3.197,11.044-.645.645-1.289,1.289-1.934,1.934-2.964-.457-5.928-.913-9.763-1.504,1.454-3.78,2.402-6.243,3.676-9.555-5.89,0-11.895-1.8-15.722.324-13.721,7.616-26.097-.924-38.56-2.856-9.645-1.495-17.909-.667-26.647,1.987-1.934-.645-3.867-1.289-5.801-1.934,1.934-3.868,3.867-7.736,5.801-11.605v-3.868c26.826-1.301,53.706-1.954,80.46-4.142,16.344-1.337,32.922-3.59,48.572-8.217,9.321-2.756,17.858-8.006,28.118-7.479,5.621.289,11.255.339,16.883.497,1.289-1.289,2.578-2.579,3.867-3.868Z" style="fill: #5764f2;"/>
      <path d="m489.007,784.914c3.223-.645,6.446-1.289,9.668-1.934-.645,1.289-1.289,2.579-1.934,3.868h-3.867c-1.289-.645-2.578-1.289-3.867-1.934Z" style="fill: #5764f2;"/>
      <path d="m516.078,781.045v3.868c-1.934-1.289-3.867-2.579-5.801-3.868h5.801Z" style="fill: #5764f2;"/>
      <path d="m492.874,786.848h3.867c.03,1.151.061,2.301.091,3.452-1.319-1.151-2.639-2.301-3.958-3.452Z" style="fill: #5764f2;"/>
      <path d="m837.072,521.874c-2.481-11.047-4.959-22.094-7.443-33.14-3.318-14.757-5.142-30.074-10.384-44.113-5.249-14.056-4.894-28.041-5.584-42.326-.258-5.356-2.825-10.609-4.41-15.887-.55-1.831-1.943-3.619-1.882-5.389.698-20.116-9.499-36.838-16.706-54.491,9.745-.244,12.485,5.805,12.085,15.123,7.53-5.16,10.876-3.145,11.694,4.855.51,4.984,3.3,8.278,9.094,7.1,1.934,1.289,3.867,2.579,5.801,3.868-2.317,2.098-4.634,4.196-8.594,7.782,2.936,1.966,5.765,3.862,8.594,5.757,1.934.645,3.867,1.289,5.801,1.934.645,2.579,1.289,5.158,1.934,7.736-2.317-.323-4.635-.647-8.52-1.189,1.13,4.976,1.982,8.73,3.293,14.506,2.819-4.053,4.023-5.784,5.227-7.515h3.867c1.289,5.158,2.578,10.315,3.867,15.473-.645,5.802-1.289,11.605-1.934,17.407-1.288,2.16-3.343,4.189-3.734,6.5-1.963,11.608,5.836,20.31,9.535,30.248,2.075,6.29-4.373,14.285,3.867,19.341.645,11.605,1.289,23.209,1.934,34.814-.645,1.289-1.289,2.579-1.934,3.868-2.49-.703-4.98-1.405-7.457-2.104,1.615-4.653,2.789-8.033,4.16-11.981h-10.107c-.741,7.83-1.403,14.826-2.066,21.822Zm-2.093-123.704c-1.371.469-2.741.938-4.112,1.407.954,3.015,1.908,6.03,2.862,9.045,1.55-.669,4.5-1.733,4.439-1.947-.819-2.904-2.056-5.69-3.19-8.505Zm-1.803,72.628c1.245-.111,2.491-.223,3.736-.334-.24-2.637-.479-5.275-.719-7.912-1.006.059-2.011.117-3.017.176v8.07Z" style="fill: #5764f2;"/>
      <path d="m837.072,521.874c.662-6.996,1.324-13.992,2.066-21.822h10.107c-1.371,3.949-2.545,7.329-4.16,11.981,2.477.699,4.967,1.402,7.457,2.104v34.814c-1.433,3.154-2.866,6.307-4.298,9.461-1.788-3.229-3.991-6.31-5.215-9.74-.792-2.221-.153-4.954-.155-7.457-1.929-4.515,6.866-13.627-5.801-13.539v-5.802Z" style="fill: #5764f2;"/>
      <path d="m842.873,419.365c.645-5.802,1.289-11.605,1.934-17.407.613.177,1.76.346,1.762.531.225,15.912,13.514,28.832,10.35,45.595-.69,3.657-.658,7.86.455,11.362,2.149,6.76.719,11.859-4.833,16.008-8.241-5.056-1.792-13.051-3.867-19.341,5.658-5.401,6.015-21.543-.201-24.892-5.444-2.934-5.995-6.846-5.6-11.856Z" style="fill: #5764f2;"/>
      <path d="m821.602,624.382c3.223-7.092,6.446-14.184,9.668-21.275,8.049,1.884,9.988,6.185,5.816,12.492-2.727,4.122-5.176,8.428-7.749,12.651-2.578-1.289-5.156-2.579-7.735-3.868Z" style="fill: #5764f2;"/>
      <path d="m622.432,833.267c-3.194-4.035-6.388-8.07-9.112-11.512,5.513-2.743,12.05-6.897,19.189-9.127,3.093-.966,7.425,2.034,11.194,3.232-6.285,1.948-12.569,3.895-18.926,5.865.525,4.924,7.186,10.43-2.344,11.542Z" style="fill: #5764f2;"/>
      <path d="m649.503,815.86c-.349-1.861-.511-3.785-1.108-5.562-.474-1.411-1.482-2.643-1.745-3.089,8.22-3.55,15.997-7.028,23.905-10.176,1.013-.403,2.707.905,4.086,1.42-8.379,5.802-16.759,11.605-25.138,17.407Z" style="fill: #5764f2;"/>
      <path d="m852.541,548.951v-34.814c.645-1.289,1.289-2.579,1.934-3.868,5.772,11.343,4.719,32.411-1.934,38.682Z" style="fill: #5764f2;"/>
      <path d="m821.602,651.46c-1.974-1.148-3.941-2.308-5.924-3.44-2.531-1.444-5.074-2.866-7.612-4.297,2.578-3.224,5.156-6.447,7.735-9.671,2.578,2.579,5.157,5.158,7.735,7.736-.645,3.224-1.289,6.447-1.934,9.671Z" style="fill: #5764f2;"/>
      <path d="m715.249,775.243c2.013-9.572,7.816-14.73,17.403-15.473-.84,1.832-1.372,3.908-2.587,5.442-2.233,2.818-4.572,5.723-7.437,7.809-1.96,1.427-4.885,1.528-7.379,2.222Z" style="fill: #5764f2;"/>
      <path d="m837.072,583.765v-13.539c4.405.078,9.569-.629,9.472,6.034-.086,5.981-3.784,8.193-9.472,7.505Z" style="fill: #5764f2;"/>
      <path d="m806.132,668.867c.219-12.988,1.063-14.001,9.668-11.605-.645,3.868-1.289,7.736-1.934,11.605h-7.735Z" style="fill: #5764f2;"/>
      <path d="m823.536,641.789c-2.578-2.579-5.156-5.158-7.735-7.736,1.289-1.934,2.578-3.868,3.867-5.802,1.934,2.579,3.867,5.158,5.801,7.736-.645,1.934-1.289,3.868-1.934,5.802Z" style="fill: #5764f2;"/>
      <path d="m837.072,527.676c12.667-.088,3.872,9.024,5.801,13.539h-5.801v-13.539Z" style="fill: #5764f2;"/>
      <path d="m806.132,680.471c-2.37-1.491-4.74-2.981-7.11-4.472,2.37-2.378,4.74-4.755,7.11-7.133v11.605Z" style="fill: #5764f2;"/>
      <path d="m796.464,688.208v1.934c-1.289,1.289-2.578,2.579-3.867,3.868-2.578-1.289-5.156-2.579-7.735-3.868,1.934-1.934,3.867-3.868,5.801-5.802,1.934,1.289,3.867,2.579,5.801,3.868Z" style="fill: #5764f2;"/>
      <path d="m840.939,386.485h-3.867v-5.802c-.645-2.579-1.289-5.158-1.934-7.736,7.024,2.331,8.568,7.011,5.801,13.539Z" style="fill: #5764f2;"/>
      <path d="m825.469,635.987c-1.934-2.579-3.867-5.158-5.801-7.736.645-1.289,1.289-2.579,1.934-3.868,2.578,1.289,5.156,2.579,7.735,3.868-1.289,2.579-2.578,5.158-3.867,7.736Z" style="fill: #5764f2;"/>
      <path d="m765.525,724.956c3.223-3.224,6.446-6.447,9.669-9.671.524,6.971-4.298,8.595-9.669,9.671Z" style="fill: #5764f2;"/>
      <path d="m835.138,372.946c-1.934-.645-3.867-1.289-5.801-1.934,1.934-2.579,3.867-5.158,5.801-7.736v9.671Z" style="fill: #5764f2;"/>
      <path d="m692.045,794.584c-4.897-3.839-4.664-5.239,1.934-11.605-.645,3.868-1.289,7.736-1.934,11.605Z" style="fill: #5764f2;"/>
      <path d="m806.132,674.669v-5.802h7.735c-2.578,1.934-5.156,3.868-7.735,5.802Z" style="fill: #5764f2;"/>
      <path d="m759.724,732.693c1.289-1.289,2.578-2.579,3.867-3.868-1.289,1.289-2.578,2.579-3.867,3.868Z" style="fill: #5764f2;"/>
      <path d="m516.078,798.453c8.738-2.654,17.002-3.482,26.647-1.987,12.463,1.932,24.839,10.472,38.56,2.856,3.827-2.124,9.831-.324,15.722-.324-1.274,3.312-2.222,5.775-3.676,9.555,3.835.591,6.799,1.048,9.763,1.504-4.622,1.917-9.158,4.089-13.893,5.666-3.458,1.152-10.248-1.677-8.868,5.006,1.133,5.482,5.461,10.366,8.685,15.311.9,1.381,2.908,2.039,4.407,3.029-6.446,1.934-12.891,3.868-19.337,5.802.382-6.794.765-13.589,1.196-21.248-9.712,0-18.774-.525-27.716.28-3.202.288-7.655,3.15-8.826,5.965-2.165,5.207-2.33,11.245-3.328,16.937-4.533,3.233-8.84,6.882-13.696,9.52-2.364,1.284-5.754.677-9.241.973,2.485-6.695,4.238-11.42,5.992-16.146l1.117.477c2.053-4.077,4.107-8.154,6.16-12.232,1.005-.495,2.011-.991,3.016-1.486-1.005-.794-2.011-1.588-3.016-2.382,5.418-6.706,6.824-12.374-2.531-17.429-3.186-1.722-4.803-6.349-7.137-9.649Z" style="fill: #5764f2;"/>
      <path d="m520.064,817.795c-4.423,0-7.889-.884-10.541.209-3.904,1.608-7.344,4.476-10.758,7.098-2.066,1.587-3.709,3.723-5.542,5.612-1.501-1.786-3.445-3.358-4.425-5.395-4.17-8.67-12.889-12.989-23.107-11.064-2.183.411-4.963,2.029-6.377,1.209-2.721-1.578-4.663-4.502-6.928-6.867,2.248-2.084,4.331-5.728,6.772-5.986,11.75-1.242,23.633-1.197,35.399-2.327,12.48-1.198,20.044,4.527,25.506,17.511Z" style="fill: #5865f2;"/>
      <path d="m535.415,846.806c.998-5.692,1.163-11.73,3.328-16.937,1.17-2.815,5.624-5.676,8.826-5.965,8.942-.805,18.004-.28,27.716-.28-.431,7.659-.813,14.453-1.196,21.248h-15.47c.45-2.813,1.864-5.935,1.09-8.357-.846-2.647-3.327-5.629-5.827-6.62-2.014-.798-5.116,1.15-7.735,1.88.994,2.281,2.095,4.522,2.949,6.855.742,2.027,1.203,4.157,1.789,6.242-5.156.645-10.313,1.289-15.469,1.934Z" style="fill: #5764f2;"/>
      <path d="m550.885,844.871c-.585-2.085-1.047-4.215-1.789-6.242-.853-2.332-1.955-4.574-2.949-6.855,2.619-.73,5.721-2.679,7.735-1.88,2.5.991,4.981,3.973,5.827,6.62.774,2.422-.64,5.544-1.09,8.357h-7.735Z" style="fill: #5764f2;"/>
      <path d="m491.912,844.94h13.353c.015.96.031,1.92.046,2.88h-13.14c-.087-.96-.173-1.92-.26-2.88Z" style="fill: #5865f2;"/>
      <path d="m472.951,825.533c-.952-.595-1.655-1.035-2.358-1.475.732-.693,1.378-1.568,2.245-1.975.281-.132,1.53.908,1.611,1.511.071.525-.877,1.188-1.498,1.939Z" style="fill: #5764f2;"/>
      <path d="m525.747,825.53c1.005.794,2.011,1.588,3.016,2.382-1.005.495-2.011.991-3.016,1.486v-3.868Z" style="fill: #5764f2;"/>
      <path d="m187.35,618.579c-1.289.645-2.578,1.289-3.867,1.934h-5.801c-3.223-3.868-6.446-7.736-9.668-11.605v-3.868c-.648-7.443,2.478-15.915-5.801-21.275v-5.802c1.142-2.076,3.72-4.667,3.191-6.143-3.251-9.053-7.205-17.853-10.925-26.738.645-2.579,1.289-5.158,1.934-7.736,2.361-.456,4.722-.912,7.082-1.368-2.361-1.478-4.722-2.956-7.082-4.434-1.484-6.582,3.954-15.241-5.801-19.341,1.297-6.738,2.595-13.475,3.937-20.45,3.456,1.099,5.869,1.867,9.597,3.052,0-4.82-.15-8.556.035-12.276.278-5.579-1.143-9.483-7.769-9.009.219-5.801,2.576-10.796,4.48-16.127,4.211-11.789,3.746-25.25,5.188-38.028,1.173-.813,2.346-1.626,3.519-2.439-1.173-1.121-2.346-2.242-3.519-3.363h-3.867v-3.868c6.151-2.471,13.152-4.456,7.735-13.539v-13.539c1.808-.807,3.616-1.615,5.424-2.422-1.163-1.127-2.327-2.253-3.49-3.38-3.599-8.549.507-13.672,7.735-17.407.433,5.299-2.488,12.834,7.735,11.605.645,4.513,1.289,9.026,1.934,13.539-2.458,1.931-4.916,3.863-7.374,5.794,2.458,1.937,4.916,3.874,7.374,5.81-.016,12.61,2.295,25.827-.787,37.636-2.456,9.407.561,16.161,2.014,24.23.705,3.918-2.299,8.73-4.26,12.834-1.76,3.683-4.389,6.951-6.635,10.402-2.296,2.061-6.404,3.979-6.579,6.206-.848,10.796-.95,21.683-.642,32.518.109,3.851,2.622,6.685,7.221,3.826,10.06,5.342,9.688,10.93,4.803,21.392-4.349,9.314-2.914,21.839-2.276,32.845.786,13.567,3.39,27.028,5.208,40.535Zm-10.463-82.069c-.956.048-1.912.096-2.868.144.232,2.494.464,4.987.696,7.481.724-.065,1.448-.129,2.172-.193v-7.431Zm3.721-89.517c.79-2.086,1.736-3.386,1.406-4.014-.42-.798-1.844-1.197-2.909-1.421-.22-.046-1.209,1.542-1.047,2.172.232.902,1.196,1.615,2.55,3.263Z" style="fill: #5764f2;"/>
      <path d="m260.831,773.309c-7.735-9.671-15.47-19.341-23.204-29.012,2.259-.935,4.556-2.681,6.767-2.579,2.284.106,4.843,1.625,6.598,3.259,1.177,1.096.705,3.816,1.759,5.217,6.09,8.102,8.703,15.207,8.081,23.115Z" style="fill: #5764f2;"/>
      <path d="m218.29,726.89c-1.934-5.158-3.867-10.315-5.801-15.473,5.79,4.187,11.58,8.373,17.37,12.56-.281.971-.562,1.942-.843,2.913h-10.727Z" style="fill: #5764f2;"/>
      <path d="m278.234,781.045c-3.223-2.579-6.446-5.158-9.668-7.736,2.33-1.395,5.191-4.441,6.895-3.892,6.385,2.058,5.186,6.911,2.774,11.628Z" style="fill: #5764f2;"/>
      <path d="m197.019,666.932c.645,3.224,1.289,6.447,1.934,9.671-3.059-1.137-6.118-2.274-9.177-3.41,1.125-2.087,2.251-4.174,3.376-6.26h3.867Z" style="fill: #5864f2;"/>
      <path d="m197.019,666.932h-3.867c-1.934-6.447-3.867-12.894-5.801-19.341,3.223,6.447,6.446,12.894,9.668,19.341Z" style="fill: #5764f2;"/>
      <path d="m168.014,605.041v3.868c-2.066,1.886-4.058,3.874-6.309,5.506-.237.172-1.997-1.758-3.051-2.713,3.12-2.22,6.24-4.441,9.359-6.661Z" style="fill: #5864f2;"/>
      <path d="m295.106,778.7c2.063,2.628,4.125,5.256,6.188,7.884-.395.706-.789,1.413-1.184,2.119-2.323-.636-5.419-.591-6.745-2.102-1.275-1.452-.718-4.514-.966-6.869.902-.344,1.805-.689,2.707-1.033Z" style="fill: #5764f2;"/>
      <path d="m162.212,577.963v5.802c-3.867-1.289-7.735-2.579-11.602-3.868v-1.934h11.602Z" style="fill: #5864f2;"/>
      <path d="m206.687,680.471c6.842,3.025,11.456,7.165,7.735,15.473-2.578-5.158-5.157-10.315-7.735-15.473Z" style="fill: #5764f2;"/>
      <path d="m233.759,711.417c3.223,3.224,6.446,6.447,9.668,9.671-3.223-3.224-6.446-6.447-9.668-9.671Z" style="fill: #5764f2;"/>
      <path d="m218.29,697.878q5.497-.822,5.801,7.736c-1.934-2.579-3.867-5.158-5.801-7.736Z" style="fill: #5764f2;"/>
      <path d="m309.173,800.387h-1.934c-.604-2.147-1.207-4.295-1.811-6.442,1.248-.189,2.496-.377,3.744-.566v7.008Z" style="fill: #5764f2;"/>
      <path d="m226.024,705.615c1.934,1.934,3.867,3.868,5.801,5.802-1.934-1.934-3.867-3.868-5.801-5.802Z" style="fill: #5764f2;"/>
      <path d="m177.682,620.514h5.801c-1.289,1.289-2.578,2.579-3.867,3.868-.645-1.289-1.289-2.579-1.934-3.868Z" style="fill: #5764f2;"/>
      <path d="m162.233,623.125c-.614.897-1.08,1.577-1.545,2.258-.672-.752-1.525-1.423-1.909-2.301-.124-.282.975-1.539,1.545-1.562.569-.022,1.177.944,1.909,1.604Z" style="fill: #5864f2;"/>
      <path d="m605.028,808.123c-.93-3.212-1.86-6.424-3.197-11.044,6.322-1.362,12.781-3.152,19.357-3.867,1.496-.163,3.396,3.395,5.111,5.24.102,6.727-3.364,9.764-9.928,9.676-3.78-.05-7.562-.007-11.342-.005Z" style="fill: #5764f2;"/>
      <path d="m235.693,299.45c-12.012,19.695-22.224,40.786-42.027,54.445-1.246.859-2.912,1.11-4.382,1.644-.645-2.579-1.289-5.158-1.934-7.736v-3.868c.924-12.438,7.549-22.527,13.536-32.88h5.801c6.088-1.934,3.018-3.868,0-5.802h-3.867c2.751-3.394,4.818-8.182,8.377-9.929,12.271-6.023,14.23-18.876,20.629-28.754,4.081.742,7.115,1.954,3.749,6.873-2.315,3.384-4.273,7.011-6.562,10.414-5.999,8.915-4.012,13.623,6.681,15.593Z" style="fill: #5764f2;"/>
      <path d="m162.212,413.563h3.867v5.802c-1.442,12.779-.977,26.239-5.188,38.028-1.904,5.331-4.261,10.326-4.48,16.127-5.157,7.17-10.313,1.22-15.47,0,1.289-9.671,2.578-19.341,3.867-29.012,1.173-.813,2.346-1.626,3.519-2.439-1.173-1.121-2.346-2.242-3.519-3.363v-13.539c1.934-1.934,3.867-3.868,5.801-5.802,3.867-1.934,7.735-3.868,11.602-5.802Z" style="fill: #5764f2;"/>
      <path d="m287.903,222.085c-3.867,3.224-7.735,6.447-11.602,9.671-2.29.324-4.58.648-6.871.972-.005.571-.011,1.142-.017,1.714,1.651.394,3.302.789,4.953,1.183-2.578,4.513-5.156,9.026-7.735,13.539-3.867-.645-7.735-1.289-11.602-1.934,1.805-3.983,3.61-7.967,5.744-12.676-.58-.72-2.195-2.726-3.811-4.731,12.031.199,12.967-11.526,19.182-17.603,2.49-2.434,6.319-3.497,9.538-5.185-.105,3.017-.549,6.075-.2,9.039.244,2.07,1.574,4.013,2.418,6.013Z" style="fill: #5764f2;"/>
      <path d="m235.693,299.45c-10.693-1.97-12.679-6.678-6.681-15.593,2.29-3.403,4.247-7.03,6.562-10.414,3.366-4.919.333-6.131-3.749-6.873,2.578-1.934,5.157-3.868,7.735-5.802,4.88,2.008,10.596,3.012,11.602,9.671v1.934c-3.161,2.487-10.457,2.492-5.801,9.671-3.223,5.802-6.446,11.605-9.668,17.407Z" style="fill: #5764f2;"/>
      <path d="m187.35,343.935v3.868c-5.538,1.895-8.811,5.3-7.735,11.605-7.228,3.735-11.334,8.858-7.735,17.407h-1.934c-1.934-1.289-3.867-2.579-5.801-3.868v-9.671c1.289-1.934,2.578-3.868,3.867-5.802,1.344-1.728,2.515-3.635,4.071-5.144,2.37-2.298,5.007-4.321,7.531-6.461,2.578-.645,5.157-1.289,7.735-1.934Z" style="fill: #5764f2;"/>
      <path d="m251.162,270.438c-1.006-6.658-6.722-7.663-11.602-9.671,3.773-6.095,6.752-13.097,15.47-13.539.188,4.235-3.755,9.848,3.867,11.605-2.578,3.868-5.156,7.737-7.735,11.605Z" style="fill: #5764f2;"/>
      <path d="m169.947,396.156c5.417,9.083-1.584,11.068-7.735,13.539-2.578-2.579-5.157-5.158-7.735-7.736,1.934-1.289,3.867-2.579,5.801-3.868,1.289-.645,2.578-1.289,3.867-1.934h5.801Z" style="fill: #5764f2;"/>
      <path d="m179.616,345.869c-2.524,2.14-5.161,4.163-7.531,6.461-1.556,1.509-2.728,3.415-4.071,5.144.953-7.608,1.906-15.215,2.859-22.823,1.562-.174,3.125-.349,4.687-.523,1.352,3.914,2.704,7.827,4.056,11.741Z" style="fill: #5764f2;"/>
      <path d="m160.279,398.09c-1.934,1.289-3.867,2.579-5.801,3.868-.645-7.092-1.289-14.184-1.934-21.275h3.867c1.289,3.868,2.578,7.736,3.867,11.605v5.802Z" style="fill: #5764f2;"/>
      <path d="m156.411,380.683h-3.867c.322-8.167,3.333-14.54,11.602-17.407v9.671c-2.578,2.579-5.157,5.158-7.735,7.736Z" style="fill: #5764f2;"/>
      <path d="m214.422,254.965c2.578-1.934,5.157-3.868,7.735-5.802,1.713.359,3.425.718,5.138,1.077.328.783.655,1.567.983,2.35-4.041,2.47-8.083,4.939-12.124,7.409-.577-1.678-1.154-3.355-1.732-5.033Z" style="fill: #5764f2;"/>
      <path d="m206.687,311.055h-5.801c.645-1.934,1.289-3.868,1.934-5.802h3.867v5.802Z" style="fill: #5764f2;"/>
      <path d="m140.942,473.521c5.157,1.22,10.313,7.17,15.47,0,6.626-.474,8.047,3.43,7.769,9.009-.186,3.719-.035,7.456-.035,12.276-3.728-1.186-6.141-1.953-9.597-3.052-1.343,6.975-2.64,13.713-3.937,20.45-2.578,3.868-5.157,7.736-7.735,11.605-.642-1.712-2.352-4.096-1.763-5.035,7.134-11.363-2.503-22.47-.286-33.737.729-3.703.115-7.67.115-11.516Z" style="fill: #5764f2;"/>
      <path d="m162.212,577.963h-11.602c-2.243-7.508-3.838-15.319-7.127-22.336-.977-2.084-6.718-1.934-10.276-2.807q-4.267-11.335,1.934-13.539c1.934,1.934,3.867,3.868,5.801,5.802h13.536c3.72,8.884,7.674,17.685,10.925,26.738.53,1.475-2.049,4.067-3.191,6.143Z" style="fill: #5764f2;"/>
      <path d="m154.478,545.083h-13.536c.645-7.092,1.289-14.184,1.934-21.275,2.578-3.868,5.157-7.736,7.735-11.605,9.755,4.1,4.317,12.759,5.801,19.341v5.802c-.645,2.579-1.289,5.158-1.934,7.736Z" style="fill: #5864f2;"/>
      <path d="m144.809,438.706c1.173,1.121,2.346,2.242,3.519,3.363-1.173.813-2.346,1.626-3.519,2.439,0-1.934,0-3.868,0-5.802Z" style="fill: #5764f2;"/>
      <path d="m782.926,254.967c.645,2.578,1.291,5.156,1.936,7.734-3.223,2.579-6.446,5.158-9.668,7.736-1.289-.645-2.578-1.289-3.867-1.934-1.289-1.289-2.578-2.579-3.867-3.868.645-2.579,1.289-5.158,1.934-7.736,4.511-.644,9.022-1.288,13.533-1.932Z" style="fill: #5764f2;"/>
      <path d="m751.989,231.756c1.934,1.289,3.867,2.579,5.801,3.868-4.169,5.574-.065,5.631,3.867,5.802v7.736c-6.745-5.332-13.49-10.665-20.236-15.997.641-.979,1.282-1.959,1.923-2.938,2.881.509,5.763,1.019,8.644,1.528Z" style="fill: #5764f2;"/>
      <path d="m723.186,223.014c-6.94-6.941-16.541-6.906-17.6-17.247,13.67.646,16.608,3.228,17.6,17.247Z" style="fill: #5764f2;"/>
      <path d="m790.663,295.582c-.645-1.934-1.289-3.868-1.934-5.802v-9.671c1.934-.645,3.867-1.289,5.801-1.934h3.867c-.316,2.433.222,5.579-1.104,7.168-4.468,5.354-2.438,9.667,1.104,14.108-2.578-1.289-5.156-2.579-7.735-3.868Z" style="fill: #5764f2;"/>
      <path d="m769.392,256.899c-.645,2.579-1.289,5.158-1.934,7.736-10.096-2.096-6.068-9.49-5.801-15.473,2.578,2.579,5.156,5.158,7.735,7.736Z" style="fill: #5764f2;"/>
      <path d="m723.555,218.865c3.425,1.558,6.85,3.116,10.275,4.674-1.085,1.341-2.817,3.986-3.153,3.819-3.092-1.534-5.941-3.556-8.862-5.436.58-1.019,1.16-2.038,1.74-3.057Z" style="fill: #5764f2;"/>
      <path d="m794.53,278.174c-1.934.645-3.867,1.289-5.801,1.934.645-2.579,1.289-5.158,1.934-7.736,1.289,1.934,2.578,3.868,3.867,5.802Z" style="fill: #5864f2;"/>
      <path d="m771.326,268.504c1.289.645,2.578,1.289,3.867,1.934-1.289-.645-2.578-1.289-3.867-1.934Z" style="fill: #5764f2;"/>
      <path d="m790.663,295.582c2.578,1.289,5.156,2.579,7.735,3.868.645,1.934,1.289,3.868,1.934,5.802,3.352,7.891,5.453,16.783,15.47,19.341-.831,6.461-.052,12.003,7.735,13.539v15.473c-5.794,1.178-8.583-2.116-9.094-7.1-.819-8-4.165-10.014-11.694-4.855.4-9.318-2.34-15.368-12.085-15.123-3.867-4.513-7.735-9.026-11.602-13.539,1.889-7.122.923-16.147,11.602-17.407Z" style="fill: #5764f2;"/>
      <path d="m823.536,353.605v-15.473h9.668c1.289,5.158,2.578,10.315,3.867,15.473-2.578,1.289-5.157,2.579-7.735,3.868-1.934-1.289-3.867-2.579-5.801-3.868Z" style="fill: #5764f2;"/>
      <path d="m815.801,324.593c-10.016-2.558-12.117-11.451-15.47-19.341h12.929c.922,7.017,1.731,13.179,2.541,19.341Z" style="fill: #5764f2;"/>
      <path d="m761.657,241.426c-3.933-.171-8.037-.228-3.867-5.802,1.289,1.934,2.578,3.868,3.867,5.802Z" style="fill: #5764f2;"/>
      <path d="m472.978,137.146c1.827.467,3.655.933,5.482,1.4-.474,1.049-.994,3.009-1.412,2.987-1.671-.086-3.309-.788-4.96-1.262.297-1.042.594-2.083.89-3.125Z" style="fill: #5764f2;"/>
      <path d="m541.419,145.812c-1.384,1.128-2.254,2.371-2.966,2.286-.954-.114-2.271-1.124-2.51-2.001-.179-.658,1.089-2.421,1.724-2.427.988-.009,1.986,1.056,3.752,2.141Z" style="fill: #5764f2;"/>
      <path d="m686.729,209.779c-.535-.234-1.367-.35-1.52-.736-.153-.384.375-1.04.605-1.576.536.232,1.373.346,1.522.728.152.389-.373,1.043-.607,1.584Z" style="fill: #5764f2;"/>
      <path d="m531.625,774.348c-19.147-1.865-44.285-4.518-69.467-6.652-8.64-.732-17.393-.317-26.09-.162-28.582.508-55.384-6.506-82.374-15.717-21.482-7.331-37.744-20.048-52.462-35.908-12.504-13.474-26.998-21.999-45.647-24.302-13.492-1.666-21.117-12.688-28.421-22.935-5.169-7.251-10.495-14.609-14.166-22.643-3.243-7.097-5.354-15.091-6.123-22.871-2.988-30.243-6.544-60.521-7.388-90.856-.783-28.168,1.291-56.442,2.752-84.636.777-14.991,4.813-30.007,4.062-44.844-1.669-32.974,6.756-61.74,27.087-87.989,11.119-14.355,19.603-30.843,28.527-46.788,15.182-27.125,34.001-50.963,62.431-64.681,12.175-5.875,26.084-8.89,39.549-11.178,19.189-3.261,38.656-5.2,58.083-6.597,8.481-.61,17.155,2.173,25.75,2.238,10.081.077,21.099,1.228,30.051-2.3,15.215-5.996,29.502-6.342,44.964-2.506,11.731,2.911,23.862,4.579,35.918,5.74,36.505,3.517,68.159,19.232,98.493,38.346,22.483,14.167,46.169,26.911,66.739,43.492,21.872,17.63,42.052,37.888,60.245,59.314,8.098,9.537,10.227,24.552,13.781,37.435,4.247,15.39,7.268,31.129,10.512,46.78,1.292,6.231,1.269,12.747,2.69,18.938,4.859,21.159,10.448,42.155,15.009,63.374,1.8,8.374,1.929,17.158,2.299,25.778,1.04,24.214,7.455,48.999-1.628,72.434-6.668,17.202-17.569,32.716-25.799,49.37-12.585,25.469-35.48,40.917-55.634,59.121-10.969,9.908-22.001,19.853-31.996,30.71-15.253,16.567-34.843,21.831-56.017,24.001-5.719.586-11.527.926-17.1,2.219-33.729,7.827-67.873,12.27-108.633,14.275Zm51.662-148.638c6.71,10.582,13.31,19.666,18.462,29.509,4.681,8.942,11.032,9.144,19.175,6.622,36.584-11.334,69.975-29.158,101.646-50.335,3.584-2.396,7.827-7.29,7.822-11.02-.041-30.155,1.489-60.627-2.281-90.392-6.502-51.334-24.131-99.512-51.208-143.864-5.908-9.678-11.125-22.45-20.117-27.073-27.603-14.191-57.817-22.13-88.37-28.018-5.497-1.059-10.081.691-11.777,7.079-.808,3.042-2.864,5.736-3.828,8.756-2.218,6.95-6.997,8.019-13.537,7.247-30.422-3.59-60.882-3.53-91.316-.049-5.446.623-9.334-.66-11.246-6.329-1.223-3.626-3.361-6.943-4.586-10.569-2.163-6.404-7.129-7.366-12.417-5.963-23.558,6.252-47.291,12.055-70.377,19.768-9.091,3.037-19.257,8.858-24.465,16.47-21.845,31.93-38.636,66.536-50.422,103.625-10.861,34.18-16.128,69.14-17.309,104.764-.444,13.389,1.727,26.852,1.542,40.266-.103,7.503,2.976,12.216,8.518,15.969,32.555,22.051,67.573,39.256,104.719,51.984,3.144,1.077,9.285-.897,11.391-3.551,6.489-8.179,11.999-17.199,17.281-26.247,2.905-4.975,3.917-9.566-4.163-12.29-8.638-2.911-16.754-7.597-24.694-12.205-2.115-1.228-2.751-5.006-4.066-7.613,2.834-.978,5.804-3.023,8.472-2.685,4.008.508,7.877,2.519,11.678,4.182,26.659,11.661,54.591,18.581,83.512,20.493,47.123,3.115,92.7-3.827,136.224-23.004,3.362-1.481,11.119-.545,12.094,1.513,3.069,6.48-3.14,8.097-7.929,10.144-9.302,3.977-18.458,8.297-28.43,12.817Z" style="fill: #5662f6;"/>
      <path d="m179.616,523.808c-4.599,2.859-7.112.025-7.221-3.826-.308-10.836-.206-21.723.642-32.518.175-2.227,4.283-4.145,6.579-6.206v42.551Z" style="fill: #5764f2;"/>
      <path d="m179.616,359.408c-1.076-6.305,2.197-9.71,7.735-11.605.645,2.579,1.289,5.158,1.934,7.736-.645,5.158-1.289,10.315-1.934,15.473-10.223,1.23-7.302-6.306-7.735-11.605Z" style="fill: #5764f2;"/>
      <path d="m258.897,258.833c-7.623-1.757-3.679-7.369-3.867-11.605,3.867.645,7.735,1.289,11.602,1.934-2.578,3.224-5.157,6.447-7.735,9.671Z" style="fill: #5764f2;"/>
      <path d="m415.526,777.177c-5.675.507-11.4,1.671-17.005,1.244-2.825-.215-5.429-3.316-8.133-5.112,5.966,0,11.967-.372,17.882.178,2.511.233,4.843,2.402,7.256,3.691Z" style="fill: #5764f2;"/>
      <path d="m245.361,699.812c-5.539-.781-13.688,3.007-13.536-7.736.645-.645,1.289-1.289,1.934-1.934,6.135.502,11.815,1.549,11.602,9.671Z" style="fill: #5764f2;"/>
      <path d="m276.3,707.549c-7.33-1.054-16.07,3.061-21.271-5.802,4.575.303,9.267.094,13.684,1.095,2.743.622,5.072,3.075,7.587,4.707Z" style="fill: #5764f2;"/>
      <path d="m189.284,396.156c-2.458-1.937-4.916-3.874-7.374-5.81,2.458-1.931,4.916-3.863,7.374-5.794,0,3.868,0,7.736,0,11.605Z" style="fill: #5764f2;"/>
      <path d="m214.422,661.13c-9.844-1.972-10.666-3.617-5.801-11.605,1.934,3.868,3.867,7.736,5.801,11.605Z" style="fill: #5864f2;"/>
      <path d="m227.958,684.34c-6.912-.978-8.076-5.79-7.735-11.605,2.578,3.224,5.157,6.447,7.735,9.671v1.934Z" style="fill: #5864f2;"/>
      <path d="m227.958,684.34v-1.934c1.934,2.579,3.867,5.158,5.801,7.736-.645.645-1.289,1.289-1.934,1.934-1.289-2.579-2.578-5.158-3.867-7.736Z" style="fill: #5764f2;"/>
      <path d="m245.361,282.043c-4.656-7.178,2.64-7.184,5.801-9.671-1.934,3.224-3.867,6.447-5.801,9.671Z" style="fill: #5764f2;"/>
      <path d="m322.709,746.231c-2.578-1.934-5.157-3.868-7.735-5.802,2.578,1.934,5.156,3.868,7.735,5.802Z" style="fill: #5764f2;"/>
      <path d="m351.714,759.77c-2.578-.645-5.157-1.289-7.735-1.934,2.578.645,5.157,1.289,7.735,1.934Z" style="fill: #5764f2;"/>
      <path d="m274.367,235.624c-1.651-.394-3.302-.789-4.953-1.183.006-.571.011-1.142.017-1.714,2.29-.324,4.58-.648,6.871-.972-.645,1.289-1.289,2.579-1.934,3.868Z" style="fill: #5764f2;"/>
      <path d="m372.985,767.507c-1.934-1.289-3.867-2.579-5.801-3.868,1.934,1.289,3.867,2.579,5.801,3.868Z" style="fill: #5764f2;"/>
      <path d="m693.978,757.836c-1.289,1.289-2.578,2.579-3.867,3.868,1.289-1.289,2.578-2.579,3.867-3.868Z" style="fill: #5764f2;"/>
      <path d="m293.003,732.207c-.234.535-.35,1.367-.736,1.52-.384.153-1.039-.375-1.576-.605.232-.536.346-1.373.728-1.523.389-.152,1.043.373,1.583.607Z" style="fill: #5764f2;"/>
      <path d="m192.629,627.053c.535.237,1.365.357,1.522.746.152.38-.384,1.036-.618,1.571-.537-.235-1.371-.352-1.525-.739-.152-.384.383-1.04.621-1.578Z" style="fill: #5864f2;"/>
      <path d="m796.464,688.208c-1.934-1.289-3.867-2.579-5.801-3.868,1.387-1.004,2.774-2.008,4.16-3.013.547,2.294,1.094,4.587,1.641,6.881Z" style="fill: #5764f2;"/>
      <path d="m842.873,419.365c-.394,5.01.156,8.922,5.6,11.856,6.216,3.35,5.859,19.491.201,24.892-3.699-9.937-11.498-18.64-9.535-30.248.391-2.311,2.446-4.341,3.734-6.5Z" style="fill: #5764f2;"/>
      <path d="m837.072,380.683v5.802c-1.204,1.731-2.408,3.462-5.227,7.515-1.311-5.776-2.164-9.53-3.293-14.506,3.886.542,6.203.865,8.52,1.189Z" style="fill: #5764f2;"/>
      <path d="m834.978,398.17c1.134,2.815,2.371,5.601,3.19,8.505.06.215-2.889,1.278-4.439,1.947-.954-3.015-1.908-6.03-2.862-9.045,1.371-.469,2.741-.938,4.112-1.407Z" style="fill: #5764f2;"/>
      <path d="m833.175,470.798v-8.07c1.006-.059,2.011-.117,3.017-.176.24,2.637.48,5.275.719,7.912-1.245.111-2.491.223-3.736.334Z" style="fill: #5764f2;"/>
      <path d="m156.411,380.683c2.578-2.579,5.157-5.158,7.735-7.736,1.934,1.289,3.867,2.579,5.801,3.868v19.341h-5.801c-1.289-1.289-2.578-2.579-3.867-3.868-1.289-3.868-2.578-7.736-3.867-11.605Z" style="fill: #5864f2;"/>
      <path d="m156.411,537.346v-5.802c2.361,1.478,4.722,2.956,7.082,4.434-2.361.456-4.722.912-7.082,1.368Z" style="fill: #5764f2;"/>
      <path d="m176.887,536.511v7.431c-.724.064-1.448.129-2.172.193-.232-2.494-.464-4.987-.696-7.481.956-.048,1.912-.096,2.868-.144Z" style="fill: #5764f2;"/>
      <path d="m169.947,382.617v-5.802h1.934c1.163,1.127,2.327,2.253,3.49,3.38-1.808.807-3.616,1.615-5.424,2.422Z" style="fill: #5764f2;"/>
      <path d="m180.608,446.994c-1.354-1.648-2.319-2.361-2.55-3.263-.162-.63.827-2.219,1.047-2.172,1.064.224,2.489.623,2.909,1.421.33.628-.616,1.928-1.406,4.014Z" style="fill: #5764f2;"/>
      <path d="m166.08,419.365v-5.802c1.173,1.121,2.346,2.242,3.519,3.363-1.173.813-2.346,1.626-3.519,2.439Z" style="fill: #5764f2;"/>
      <path d="m206.687,311.055v-5.802c3.018,1.934,6.088,3.868,0,5.802Z" style="fill: #5764f2;"/>
      <path d="m160.279,392.288c1.289,1.289,2.578,2.579,3.867,3.868-1.289.645-2.578,1.289-3.867,1.934v-5.802Z" style="fill: #5764f2;"/>
      <path d="m583.287,625.71c9.973-4.521,19.128-8.841,28.43-12.817,4.789-2.047,10.998-3.664,7.929-10.144-.975-2.058-8.731-2.995-12.094-1.513-43.524,19.177-89.1,26.119-136.224,23.004-28.921-1.912-56.853-8.832-83.512-20.493-3.801-1.663-7.67-3.673-11.678-4.182-2.667-.338-5.637,1.707-8.472,2.685,1.315,2.607,1.951,6.386,4.066,7.613,7.94,4.608,16.056,9.293,24.694,12.205,8.081,2.724,7.068,7.315,4.163,12.29-5.282,9.048-10.792,18.068-17.281,26.247-2.106,2.654-8.247,4.628-11.391,3.551-37.147-12.727-72.164-29.932-104.719-51.984-5.541-3.753-8.621-8.467-8.518-15.969.184-13.414-1.986-26.877-1.542-40.266,1.181-35.624,6.448-70.584,17.309-104.764,11.786-37.089,28.577-71.695,50.422-103.625,5.208-7.612,15.374-13.433,24.465-16.47,23.086-7.713,46.819-13.515,70.377-19.768,5.287-1.403,10.253-.441,12.417,5.963,1.225,3.626,3.363,6.943,4.586,10.569,1.912,5.669,5.8,6.952,11.246,6.329,30.435-3.481,60.895-3.541,91.316.049,6.54.772,11.318-.297,13.537-7.247.964-3.02,3.02-5.714,3.828-8.756,1.696-6.388,6.28-8.138,11.777-7.079,30.552,5.887,60.767,13.826,88.37,28.018,8.991,4.623,14.208,17.396,20.117,27.073,27.077,44.352,44.706,92.53,51.208,143.864,3.77,29.765,2.24,60.237,2.281,90.392.005,3.73-4.239,8.623-7.822,11.02-31.67,21.177-65.062,39.001-101.646,50.335-8.143,2.523-14.495,2.321-19.175-6.622-5.152-9.843-11.753-18.927-18.462-29.509Zm-123.593-119.59c-2.286-7.786-4.096-15.752-6.946-23.326-9.284-24.665-44.854-30.053-61.194-15.447-18.573,16.602-22.699,34.692-15.864,54.046,6.912,19.571,21.174,30.128,37.163,31.488,24.843,2.113,46.681-22.36,46.841-46.761Zm113.584-46.143c-21.91-3.482-42.627,21.501-41.972,45.752.678,25.126,18.994,46.448,40.572,47.262,22.297.84,44.672-20.161,44.761-48.169.068-21.279-19.117-48.456-43.362-44.845Z" style="fill: none;"/>
      <path d="m459.695,506.12c-.161,24.4-21.999,48.873-46.841,46.761-15.99-1.36-30.252-11.917-37.163-31.488-6.835-19.353-2.709-37.443,15.864-54.046,16.34-14.606,51.909-9.218,61.194,15.447,2.851,7.574,4.66,15.54,6.946,23.326Z" style="fill: #5663f5;"/>
      <path d="m573.279,459.977c24.245-3.611,43.43,23.566,43.362,44.845-.09,28.008-22.464,49.009-44.761,48.169-21.578-.813-39.894-22.136-40.572-47.262-.655-24.251,20.062-49.234,41.972-45.752Z" style="fill: #5662f5;"/>
      <rect x=".5" width="990" height="987" style="fill: none;"/>
    </g>
  </g>
</svg>