<?xml version="1.0" encoding="UTF-8"?>
<svg id="Layer_2" data-name="Layer 2" xmlns="http://www.w3.org/2000/svg" width="990" height="987" viewBox="0 0 990 987">
  <g id="Layer_2-2" data-name="Layer 2">
    <g>
      <path d="m32,980.333V29.333h951v951H32Zm200.58-263.554c4.543,4.923,9.086,9.846,13.629,14.768,5.973,8.698,11.946,17.395,17.92,26.093,3.056,3.722,6.111,7.443,9.167,11.165.814,2.835.771,6.491,2.576,8.376,17.811,18.595,36.502,35.964,59.964,47.728,21.389,10.725,43.727,18.247,67.237,21.382,15.738,2.099,32.157,3.781,47.707,1.612,31.697-4.42,62.068-14.147,89.483-31.558,19.972-12.684,38.652-26.96,52.686-46.198,28.15-38.587,41.212-82.388,43.25-129.77.207-.184.616-.422.584-.543-.122-.462-.387-.887-.598-1.326-.089-3.388-.252-6.777-.255-10.165-.074-80.82-.131-161.64-.19-242.46,2.45-3.177,2.475-9.328,9.083-7.404.187.56.297,1.134.332,1.723.454.647.907,1.294,1.361,1.94,20.972,24.657,45.718,44.12,76.594,54.882,22.292,7.77,45.12,12.762,68.948,12.048,7.379-.221,11.334-2.621,10.902-11.012-.619-12.03-.281-24.112-.237-36.172.067-18.627-.066-37.263.514-55.876.201-6.44-2.818-9.171-8.118-10.159-5.325-.993-10.795-1.212-16.201-1.77-.77-.735-1.539-1.471-2.309-2.206-.108-8.888,1.413-18.295-1.165-26.397-.967-3.04-11.444-3.138-17.616-4.426-26.667-5.565-50.615-17.138-73.059-32.324-3.236-2.189-7.869-2.315-11.855-3.396-8.133-11.764-16.266-23.527-24.399-35.291-.541-3.838-.795-7.743-1.68-11.5-2.26-9.594-5.224-19.04-7.097-28.702-1.547-7.977-3.547-14.309-13.725-12.201-2.074.43-4.278.234-6.422.326-.874-1.289-1.748-2.579-2.621-3.868-1.849-9.888-3.697-19.775-5.546-29.663-1.569-.678-3.139-1.947-4.708-1.946-26.825.019-53.649.195-80.474.336-2.56.342-5.121.685-7.681,1.027-1.073.818-2.146,1.636-3.219,2.454-.061,2.989-.121,5.977-.182,8.966.433.7.866,1.4,1.298,2.099.245,3.097.489,6.193.734,9.29,0,2.497-.001,4.994-.002,7.491-.015,1.814-.03,3.627-.046,5.441.046,22.937.093,45.875.139,68.812.001.609.002,1.217.004,1.826.002,4.346.004,8.691.006,13.037.001.608.002,1.216.003,1.824-.096,3.399-.254,6.798-.279,10.197-.464,64.146-1.01,128.291-1.331,192.437-.254,50.734-.228,101.47-.327,152.205-.62,3.096-1.241,6.192-1.862,9.289-.196,2.442-.393,4.883-.589,7.325-1.627,4.992-3.254,9.984-4.881,14.975-14.785,30.429-38.556,50.214-70.901,59.845-1.898.621-3.796,1.242-5.694,1.862-22.681,5.632-44.62,3.47-66.005-5.899-6.839-2.996-14.008-5.239-21.027-7.826-4.538-7.259-9.077-14.517-13.615-21.776-.592-5.078-.923-10.201-1.817-15.225-5.878-33.037,3.145-61.572,24.981-86.766,13.563-15.649,30.629-25.335,49.674-32.253,1.866-.506,3.733-1.013,5.599-1.519l-.036.027c7.169-.626,14.929-3.287,21.373-1.417,10.438,3.029,13.054-1.018,13.623-9.801-.02-25.385-.04-50.771-.06-76.156.024-3.099.048-6.198.071-9.296-1.154-1.147-2.309-2.295-3.463-3.442-6.758-.19-13.515-.38-20.273-.571-1.021-10.767-2.042-21.534-3.23-34.068-13.166,1.021-26.413,2.047-39.659,3.074-2.448.028-4.958-.292-7.334.136-27.146,4.885-52.343,15.155-75.43,29.893-22.965,14.66-42.345,33.386-56.669,56.896-6.763,12.69-15.221,24.793-19.872,38.215-6.216,17.938-11.384,36.69-13.455,55.483-1.929,17.506.787,35.524,1.458,53.317,3.277,26.168,11.739,50.455,26.314,72.525Z" style="fill: none;"/>
      <path d="m253.072,770.259c-4.211-6.83-8.422-13.66-12.635-20.491-2.295-6.408-4.589-12.816-6.882-19.224-6.035-19.854-7.246-40.377-6.835-61.126.503-2.05,1.082-4.081,1.496-6.153,2.696-13.484,5.357-26.978,8.029-40.468,1.025-2.019,2.236-3.95,3.046-6.071,7.333-19.208,17.524-36.473,31.407-50.297,10.306-10.262,21.578-19.896,33.691-27.193,17.68-10.65,36.759-17.833,57.463-16.906.029,2.788.057,5.576.086,8.364.297,11.723.594,23.446.891,35.169-.056,1.913-.113,3.826-.169,5.74-.288.378-.575.756-.863,1.134-7.312.651-14.749.565-21.914,2.077-37.18,7.847-59.696,42.363-60.324,81.278-.286,17.73,5.655,34.073,15.167,48.453,1.049,1.586,3.524,2.001,5.338,2.96,3.2,5.7,6.399,11.4,9.599,17.101,2.676,4.356,4.976,9.085,8.102,12.994,8.042,10.055,17.394,18.097,29.566,21.095,8.736,5.257,18.266,4.415,27.603,4.018,25.58-1.088,45.37-13.903,60.473-36.86,13.65-20.749,11.682-44.667,12.529-68.124.082-2.176.233-4.353.235-6.529.056-49.984.081-99.968.143-149.951.076-61.624.181-123.249.274-184.873.318-.553.635-1.106.953-1.659,2.222-.427,4.44-1.19,6.668-1.224,13.07-.204,26.143-.238,39.215-.33,2.134-.387,4.268-.773,6.402-1.16.616,1.013,1.232,2.025,1.848,3.037,5.177,14.634,9.26,29.945,20.392,40.897,5.734,9.238,11.468,18.476,17.201,27.714,14.091,21.244,32.099,36.878,54.269,46.282,6.078,2.578,12.547,4.015,18.836,5.975.543.577,1.085,1.155,1.628,1.732-.43,2.328-.86,4.657-1.29,6.985.304.525.609,1.051.914,1.576.013,16.535.027,33.071.04,49.606-.317.535-.635,1.07-.952,1.605-1.821,1.414-3.648,4.043-5.462,4.033-8.396-.049-16.856-.262-25.17-1.465-20.226-2.927-38.591-11.16-54.774-25.24-2.066-1.797-4.912-2.48-7.397-3.68-1.732-1.507-3.464-3.015-5.196-4.522-4.475-9.628-10.935-17.321-18.686-24.204-.634,5.068.027,9.618.032,14.17.062,64.856.167,129.712-.094,194.567-.047,11.707-.601,23.666-2.793,35.061-7.879,40.97-26.452,74.75-57.46,99.121-33.225,26.114-70.177,36.836-110.325,28.265-23.442-5.005-45.566-14.919-63.762-33.268-.2-8.593-3.15-11.386-10.552-9.989Z" style="fill: #000001;"/>
      <path d="m279.096,770.36c25.809,23.365,57.191,35.99,90.441,42.363,56.947,10.915,109.361-2.739,156.489-35.992,43.983-31.034,70.328-74.049,81.504-126.22,3.109-14.511,3.894-29.74,3.961-44.647.37-82.585.221-165.173.133-247.759-.006-5.796-.944-11.59-.045-18.043,10.995,8.764,20.158,18.561,26.504,30.821-.783,5-1.564,10.001-2.346,15.001.06,80.82.116,161.64.19,242.461.003,3.388.167,6.777.255,10.165.005.623.01,1.246.014,1.868-2.037,47.382-15.1,91.183-43.25,129.77-14.034,19.237-32.714,33.513-52.686,46.198-27.415,17.411-57.786,27.138-89.483,31.558-15.551,2.169-31.969.486-47.707-1.612-23.509-3.135-45.847-10.657-67.237-21.382-23.462-11.764-42.153-29.132-59.964-47.728-1.806-1.885-1.762-5.542-2.576-8.376,1.933.518,3.867,1.036,5.8,1.555Z" style="fill: #fc2e56;"/>
      <path d="m541.456,179.667c-.131,78.472-.28,156.944-.388,235.416-.088,63.649-.123,127.298-.203,190.946-.003,2.772-.218,5.543-.334,8.314-8.391,1.863-16.781,3.727-25.172,5.59.099-50.735.073-101.471.327-152.205.321-64.146.868-128.292,1.331-192.437.025-3.4.183-6.798.278-10.197.197-.18.589-.407.558-.531-.111-.45-.362-.865-.561-1.293-.002-4.346-.004-8.691-.006-13.037.198-.18.591-.408.56-.531-.112-.451-.364-.866-.564-1.295-.046-22.937-.093-45.875-.139-68.812.015-1.814.031-3.627.046-5.441,0-2.497.001-4.994.002-7.491,4.239-.623,8.479-1.246,12.718-1.868,3.734,4.342,7.468,8.683,11.202,13.025.115.616.229,1.232.344,1.848Z" style="fill: #26fbf6;"/>
      <path d="m418.427,441.93c-29.367-1.18-56.43,7.966-81.507,21.528-17.181,9.292-33.171,21.56-47.789,34.627-19.692,17.604-34.147,39.589-44.549,64.048-1.149,2.701-2.867,5.16-4.321,7.731-.285-.119-.561-.298-.858-.347-5.764-.957-12.645-.25-17.042-3.22-7.045-4.759,1.307-10.968.97-16.718-.968-16.493,8.902-27.989,18.17-39.844,3.535-4.522,6.488-9.5,9.706-14.27.002-.617.004-1.235.006-1.852,1.236-1.241,2.473-2.481,3.709-3.722,1.271-2.093,2.065-4.832,3.888-6.178,14.751-10.893,22.765-29.85,42.107-35.232.527-.147.866-.872,1.366-1.224,19.272-13.577,40.346-22.43,64.062-24.223,7.988-.604,11.477-4.957,11.223-12.72,13.246-1.027,26.493-2.054,39.659-3.074,1.188,12.534,2.209,23.301,3.229,34.068-.677.207-1.354.415-2.03.622Z" style="fill: #25f3ee;"/>
      <path d="m330.785,677.728c-2.573-1.22-6.084-1.75-7.572-3.769-13.493-18.311-21.92-39.123-21.514-61.7.891-49.554,32.828-93.506,85.565-103.498,10.163-1.926,20.713-1.816,31.084-2.644,0,0,.876.178.876.178l.892-.051c2.852,2.972,5.705,5.944,8.674,9.037-6.229,8.486-12.917,17.598-19.605,26.711,0,0,.036-.027.036-.027-1.866.506-3.733,1.013-5.599,1.519-19.045,6.919-36.111,16.604-49.674,32.253-21.836,25.194-30.859,53.73-24.981,86.766.894,5.024,1.225,10.148,1.817,15.225Z" style="fill: #fb2e56;"/>
      <path d="m515.359,619.933c8.391-1.863,16.781-3.727,25.172-5.59-1.201,29.87,1.59,60.327-17.771,86.749-21.422,29.234-49.492,45.552-85.776,46.938-13.244.506-26.761,1.578-39.153-5.117.593-1.41,1.789-2.868,1.682-4.222-.81-10.238,5.397-11.629,13.404-11.024,1.828.138,3.676.022,5.515.02,15.348-.015,15.568-.259,13.002-14.457,1.898-.621,3.796-1.242,5.693-1.863,3.941,2.695,5.701,9.112,12.804,6.196,22.689-9.315,39.084-26.67,56.003-43.33,2.727-2.685,4.812-6.433,6.087-10.077,1.682-4.808,3.685-10.46-3.992-12.633,1.627-4.992,3.254-9.984,4.881-14.975,1.862-1.543,3.724-3.086,5.586-4.63-1.666-.898-3.331-1.797-4.997-2.695.621-3.096,1.241-6.192,1.862-9.289Z" style="fill: #25f4ee;"/>
      <path d="m778.441,408.153c-.019-21.056-.038-42.112-.057-63.168-.432-.669-.864-1.338-1.296-2.007.61-2.965,1.219-5.93,1.83-8.895,5.407.559,10.876.778,16.201,1.77,5.301.988,8.319,3.718,8.118,10.159-.58,18.613-.447,37.249-.514,55.876-.043,12.059-.381,24.142.237,36.172.432,8.392-3.524,10.791-10.902,11.012-23.828.714-46.656-4.278-68.948-12.048-30.877-10.763-55.623-30.225-76.594-54.882-.454-.647-.907-1.294-1.361-1.94-.035-.589-.145-1.163-.332-1.723.211-.613.422-1.226.634-1.838,3.525,1.527,7.563,2.397,10.492,4.686,22.954,17.929,49.004,28.414,77.693,32.14,11.794,1.532,23.793,1.803,35.702,1.866,2.573.014,5.164-3.335,7.747-5.135.45-.681.9-1.363,1.35-2.044Z" style="fill: #fd3059;"/>
      <path d="m251.207,495.465c-3.218,4.77-6.17,9.748-9.706,14.27-9.268,11.855-19.138,23.35-18.17,39.844.338,5.75-8.014,11.959-.97,16.718,4.397,2.971,11.278,2.263,17.042,3.22.297.049.572.228.858.347-3.79,17.178-7.564,34.36-11.389,51.531-.588,2.638-1.409,5.225-2.122,7.835-12.782-2.213-13.014-1.978-16.68,10.387-.524,1.766-2.5,3.101-3.804,4.636-.671-17.793-3.387-35.81-1.458-53.317,2.071-18.793,7.238-37.545,13.455-55.483,4.651-13.422,13.109-25.525,19.872-38.214,5.525,8.009,8.47-2.988,13.073-1.775Z" style="fill: #28f7f1;"/>
      <path d="m409.186,541.991c6.688-9.112,13.376-18.224,19.605-26.711-2.969-3.094-5.822-6.066-8.674-9.037.007-.589-.175-1.112-.545-1.571.08-2.436.16-4.872.24-7.309-.421-14.928-.843-29.856-1.264-44.783-.04-3.55-.081-7.1-.121-10.651.677-.207,1.353-.414,2.03-.622,6.758.19,13.516.38,20.273.57,1.154,1.147,2.309,2.295,3.463,3.442-.024,3.099-.048,6.198-.071,9.296-.509,2.957-1.441,5.911-1.46,8.871-.128,19.474-.125,38.95.015,58.424.021,2.957.98,5.907,1.505,8.861-.569,8.784-3.184,12.83-13.623,9.801-6.445-1.87-14.204.79-21.373,1.417Z" style="fill: #fe305a;"/>
      <path d="m776.609,331.878c-8.921-2.496-18.096-4.326-26.718-7.609-31.447-11.975-56.991-31.883-76.977-58.935,3.987,1.081,8.619,1.207,11.855,3.396,22.444,15.186,46.392,26.76,73.059,32.324,6.173,1.288,16.649,1.386,17.616,4.426,2.578,8.103,1.057,17.509,1.165,26.397Z" style="fill: #2af8f4;"/>
      <path d="m251.207,495.465c-4.603-1.214-7.547,9.784-13.073,1.775,14.324-23.511,33.704-42.237,56.669-56.897,23.087-14.738,48.284-25.008,75.43-29.893,2.376-.428,4.886-.108,7.334-.136.254,7.763-3.235,12.116-11.223,12.72-23.717,1.793-44.791,10.646-64.062,24.223-.5.352-.839,1.077-1.366,1.224-19.342,5.382-27.356,24.339-42.107,35.232-1.823,1.346-2.617,4.085-3.888,6.178-1.236,1.241-2.473,2.481-3.709,3.722-.002.617-.004,1.235-.006,1.852Z" style="fill: #2bfbf8;"/>
      <path d="m431.433,713.229c2.566,14.198,2.347,14.442-13.002,14.457-1.839.002-3.686.118-5.515-.02-8.008-.604-14.215.786-13.404,11.024.107,1.355-1.089,2.812-1.682,4.222-17.266-3.818-30.531-14.057-41.937-26.862-4.434-4.978-7.696-11-11.492-16.546,7.018,2.587,14.187,4.83,21.027,7.826,21.386,9.369,43.324,11.531,66.005,5.899Z" style="fill: #29f8f4;"/>
      <path d="m529.91,164.794c-4.239.623-8.479,1.246-12.718,1.868-.244-3.097-.489-6.193-.733-9.29-.433-.7-.866-1.4-1.299-2.1.061-2.989.121-5.977.181-8.966,1.073-.818,2.146-1.636,3.219-2.454,2.56-.342,5.121-.685,7.681-1.028,3.237.51,6.473,1.443,9.713,1.463,25.156.149,50.313.121,75.469.148,1.849,9.888,3.697,19.775,5.546,29.662-3.027.492-6.054.984-9.081,1.477-.698-1.924-2.342-4.084-1.933-5.733,1.946-7.841-1.925-14.204-9.657-14.274-19.033-.172-38.069-.054-57.104-.059-6.202-.002-10.125,2.256-9.284,9.286Z" style="fill: #2cfcf8;"/>
      <path d="m206.266,644.254c1.304-1.535,3.281-2.87,3.804-4.636,3.666-12.365,3.898-12.6,16.68-10.387-.583,26.421,1.135,52.555,9.694,77.837-1.288,3.237-2.576,6.474-3.864,9.712-14.576-22.07-23.037-46.357-26.314-72.525Z" style="fill: #28f9f8;"/>
      <path d="m508.028,651.522c7.677,2.173,5.674,7.825,3.992,12.633-1.275,3.644-3.36,7.392-6.087,10.077-16.919,16.66-33.314,34.015-56.003,43.33-7.103,2.916-8.863-3.5-12.804-6.196,32.346-9.63,56.117-29.415,70.902-59.844Z" style="fill: #2cfaf6;"/>
      <path d="m648.515,230.044c-15.79-13.946-21.581-33.444-28.925-52.078,2.145-.091,4.348.104,6.423-.325,10.177-2.108,12.178,4.224,13.725,12.201,1.874,9.662,4.838,19.108,7.097,28.702.885,3.757,1.139,7.663,1.68,11.5Z" style="fill: #f7375e;"/>
      <path d="m611.424,144.436c-25.157-.027-50.313,0-75.469-.148-3.241-.019-6.476-.953-9.713-1.463,26.825-.141,53.65-.317,80.474-.336,1.569-.001,3.139,1.268,4.708,1.946Z" style="fill: #53f3ec;"/>
      <path d="m444.182,530.773c-.525-2.953-1.484-5.904-1.505-8.861-.14-19.474-.143-38.95-.015-58.424.019-2.96.951-5.914,1.46-8.871.02,25.385.04,50.771.06,76.156Z" style="fill: #fb586c;"/>
      <path d="m279.096,770.36c-1.933-.518-3.867-1.036-5.8-1.555-3.056-3.722-6.111-7.443-9.167-11.165,10.499-1.779,14.684,1.777,14.968,12.72Z" style="fill: #130c0f;"/>
      <path d="m232.58,716.779c1.288-3.237,2.576-6.475,3.864-9.712,3.253,8.16,6.506,16.319,9.762,24.48-4.54-4.922-9.083-9.845-13.626-14.768Z" style="fill: #2ee1e2;"/>
      <path d="m645.456,376.641c-.211.613-.422,1.226-.634,1.838-6.609-1.923-6.633,4.228-9.083,7.404.781-5.001,1.563-10.001,2.345-15.001,2.458,1.92,4.915,3.839,7.372,5.759Z" style="fill: #fde1ed;"/>
      <path d="m513.498,629.222c1.666.898,3.331,1.797,4.997,2.695-1.862,1.543-3.724,3.087-5.586,4.63.196-2.442.393-4.883.589-7.325Z" style="fill: #26fbf6;"/>
      <path d="m444.193,445.321c-1.155-1.147-2.309-2.295-3.463-3.442,1.155,1.147,2.309,2.295,3.463,3.442Z" style="fill: #fb586c;"/>
      <path d="m403.623,543.483c1.866-.506,3.732-1.013,5.599-1.519-1.866.506-3.732,1.013-5.599,1.519Z" style="fill: #fe305a;"/>
      <path d="m517.19,174.154c-.015,1.814-.031,3.627-.046,5.441.015-1.814.031-3.627.046-5.441Z" style="fill: #2cfcf8;"/>
      <path d="m518.56,143.853c-1.073.818-2.146,1.636-3.219,2.454,1.073-.818,2.146-1.636,3.219-2.454Z" style="fill: #53f3ec;"/>
      <path d="m645.154,380.202c.454.647.907,1.294,1.361,1.94-.454-.647-.907-1.294-1.361-1.94Z" style="fill: #fde1ed;"/>
      <path d="m517.293,263.269c.199.428.45.844.561,1.293.03.124-.361.351-.558.531,0-.608-.002-1.216-.003-1.824Z" style="fill: #3df6f8;"/>
      <path d="m517.283,248.407c.2.429.452.844.564,1.295.031.123-.362.351-.56.531-.001-.609-.002-1.217-.004-1.826Z" style="fill: #3df6f8;"/>
      <path d="m636.199,640.377c-.005-.623-.01-1.246-.014-1.868.211.439.476.863.598,1.326.032.121-.377.359-.584.543Z" style="fill: #fde1ed;"/>
      <path d="m515.16,155.273c.433.7.866,1.4,1.299,2.1-.433-.7-.866-1.4-1.299-2.1Z" style="fill: #dcfff8;"/>
      <path d="m529.91,164.794c-.841-7.029,3.082-9.287,9.284-9.286,19.035.005,38.071-.112,57.104.059,7.732.07,11.604,6.433,9.657,14.274-.41,1.65,1.235,3.809,1.933,5.733-18.542.116-37.084.16-55.624.42-3.159.044-6.305,1.016-9.458,1.559-.554.158-1.119.246-1.695.265-3.734-4.342-7.468-8.683-11.202-13.025Z" style="fill: #27f4ed;"/>
      <path d="m418.548,452.581c.421,14.928.843,29.855,1.264,44.783-.422-14.928-.843-29.856-1.264-44.783Z" style="fill: #371420;"/>
      <path d="m419.572,504.673c.37.459.552.982.545,1.571,0,0-.893.05-.893.05,0,0-.876-.177-.876-.178.408-.481.816-.962,1.224-1.444Z" style="fill: #371420;"/>
      <path d="m777.088,342.978c.432.669.864,1.338,1.296,2.007-.432-.669-.864-1.338-1.296-2.007Z" style="fill: #130c0f;"/>
      <path d="m541.112,177.819c.576-.018,1.141-.107,1.695-.265-.45.704-.901,1.408-1.351,2.113-.115-.616-.229-1.232-.344-1.848Z" style="fill: #04221c;"/>
      <path d="m778.441,408.153c-.45.681-.9,1.363-1.35,2.044.45-.681.9-1.363,1.35-2.044Z" style="fill: #130c0f;"/>
      <path d="m251.213,493.613c1.236-1.24,2.473-2.481,3.709-3.722-1.237,1.24-2.473,2.481-3.709,3.722Z" style="fill: #28f7f1;"/>
      <rect width="990" height="987" style="fill: none;"/>
    </g>
  </g>
</svg>